<?xml version="1.0" encoding="UTF-8"?>
<svg version="1.1" xmlns="http://www.w3.org/2000/svg" width="500" height="500">
<path d="M0 0 C165 0 330 0 500 0 C500 165 500 330 500 500 C335 500 170 500 0 500 C0 335 0 170 0 0 Z " fill="#000000" transform="translate(0,0)"/>
<path d="M0 0 C7.10578797 4.78794761 13.68161547 10.22053651 20 16 C23.73083787 14.40232355 26.39919855 12.03815161 29.4375 9.375 C42.52047156 -1.78656846 57.03977819 -10.503 74.515625 -10.33984375 C79.47862377 -9.85578445 82.36773115 -8.32675091 86 -5 C86.55171875 -4.5153125 87.1034375 -4.030625 87.671875 -3.53125 C96.22725279 5.1088345 97.20378168 18.55076887 97.25976562 30.07226562 C97.14500256 39.79181476 95.49503865 49.41478765 94 59 C94.86238281 59.24492187 95.72476563 59.48984375 96.61328125 59.7421875 C114.19484697 65.1261939 133.49956255 73.27339123 142.6875 90.125 C145.46452596 96.48868047 146.37222334 100.34073777 143.921875 106.875 C135.47163628 125.44695323 116.27415863 134.05181988 98.0625 140.9375 C97.051875 141.288125 96.04125 141.63875 95 142 C95.1440088 143.66682531 95.29031844 145.33345185 95.4375 147 C95.51871094 147.928125 95.59992188 148.85625 95.68359375 149.8125 C95.91394385 152.13306393 96.20171637 154.4481429 96.5234375 156.7578125 C98.58764904 173.04709194 97.76506052 188.79093306 89 203 C85.24608376 207.70019429 79.80581645 209.94951302 74 211 C53.38036906 211.52617878 36.88226299 197.46472698 22 185 C18.76770213 186.42537857 16.5976741 188.18227947 14.0625 190.625 C0.8154084 202.64793792 -15.4846986 210.79964312 -33.49609375 210.41796875 C-39.68389427 209.67984762 -42.97136327 207.02863673 -47.25 202.75 C-57.78961239 186.18775196 -56.36044459 165.80317186 -52.421875 147.28125 C-51.98557629 145.5111238 -51.50084482 143.75295688 -51 142 C-51.83144531 141.90074219 -52.66289062 141.80148437 -53.51953125 141.69921875 C-57.5031874 140.89891072 -61.00631399 139.47514245 -64.6875 137.8125 C-65.39229492 137.49571289 -66.09708984 137.17892578 -66.82324219 136.85253906 C-68.88802112 135.913832 -70.94486882 134.95961242 -73 134 C-74.01191406 133.53464844 -75.02382812 133.06929687 -76.06640625 132.58984375 C-86.36041798 127.45032989 -98.15392943 117.95168488 -102.45703125 107.015625 C-103.90766325 101.63054505 -103.82266935 96.13203591 -101.5625 91 C-92.02393829 74.5963143 -74.40594987 65.83513748 -57 60 C-53.4375 59.28125 -53.4375 59.28125 -51 59 C-51.20496094 58.02160156 -51.40992188 57.04320312 -51.62109375 56.03515625 C-54.68382293 41.23984747 -54.68382293 41.23984747 -55 35 C-55.03254883 34.36723145 -55.06509766 33.73446289 -55.09863281 33.08251953 C-55.71015956 19.34169872 -54.74335897 5.71538053 -45 -5 C-31.05700851 -15.8579912 -13.30369528 -7.87953764 0 0 Z " fill="#00D3F9" transform="translate(229,150)"/>
<path d="M0 0 C1.21945313 -0.00386719 2.43890625 -0.00773438 3.6953125 -0.01171875 C7.13220146 -0.00800721 10.5639584 0.05420784 14 0.125 C14.88115479 0.10421387 15.76230957 0.08342773 16.67016602 0.06201172 C20.05720435 0.1307517 22.13317128 0.30788005 24.65185547 2.68212891 C26.27513574 4.87696442 27.61200947 7.11364991 28.9375 9.5 C29.43403076 10.34183838 29.93056152 11.18367676 30.44213867 12.05102539 C31.99931813 14.72263495 33.50316657 17.41918573 35 20.125 C35.50370117 21.01461426 36.00740234 21.90422852 36.52636719 22.82080078 C37.97682749 25.39009298 39.40165207 27.97127044 40.8125 30.5625 C41.25134521 31.36026855 41.69019043 32.15803711 42.14233398 32.97998047 C42.53493408 33.72779785 42.92753418 34.47561523 43.33203125 35.24609375 C43.85373901 36.22727173 43.85373901 36.22727173 44.38598633 37.22827148 C45.36718045 40.25924451 44.39149877 42.2528612 43.12719727 45.06933594 C42.77713623 45.74254883 42.4270752 46.41576172 42.06640625 47.109375 C41.66969727 47.87258057 41.27298828 48.63578613 40.86425781 49.42211914 C36.96977004 56.76043847 33.02297915 64.06119635 28.75 71.1875 C28.36271729 71.85942383 27.97543457 72.53134766 27.57641602 73.22363281 C24.85214998 77.64559645 22.95396672 78.86900001 18 80.125 C5.43480177 82.00283004 -14.54211491 84.97578372 -25.93212891 78.44335938 C-30.22799036 74.02590746 -32.16008219 68.7091366 -34.00488281 62.91845703 C-35.64382165 58.31768713 -38.26935892 54.3346696 -40.8125 50.1875 C-41.67129168 48.75205299 -42.51280754 47.30604707 -43.33203125 45.84765625 C-43.67983643 45.24703369 -44.0276416 44.64641113 -44.38598633 44.02758789 C-45.51800784 40.51989659 -44.30325221 37.78816421 -42.82006836 34.54467773 C-42.33159424 33.64177002 -41.84312012 32.7388623 -41.33984375 31.80859375 C-40.7974707 30.8019165 -40.25509766 29.79523926 -39.69628906 28.75805664 C-36.82081544 23.53358771 -33.92681879 18.32088532 -31 13.125 C-30.5870166 12.37379883 -30.1740332 11.62259766 -29.74853516 10.84863281 C-28.78365378 9.1085964 -27.7697115 7.39598214 -26.75 5.6875 C-26.22921875 4.80191406 -25.7084375 3.91632813 -25.171875 3.00390625 C-19.35025584 -2.03242255 -7.28344089 -0.02309759 0 0 Z " fill="#000202" transform="translate(250,209.875)"/>
<path d="M0 0 C0.37511719 1.17175781 0.75023437 2.34351563 1.13671875 3.55078125 C1.65204712 5.13854061 2.16909066 6.72574392 2.6875 8.3125 C2.95570557 9.13395508 3.22391113 9.95541016 3.50024414 10.80175781 C5.33866279 16.31647162 7.47002365 21.5035305 10.21484375 26.640625 C12.25700818 32.77727831 8.46311497 39.23503092 6.125 44.875 C5.41846149 46.60123146 4.71272202 48.3277902 4.0078125 50.0546875 C3.49976074 51.29557129 3.49976074 51.29557129 2.98144531 52.56152344 C1.59015071 56.01830217 0.28965444 59.50414425 -1 63 C-17.68957094 58.5365101 -33.55101363 51.30515992 -44 37 C-45.57147388 32.28557835 -45.77637071 28.58649666 -43.5625 24.0625 C-34.12019282 12.77779142 -15.45491489 0 0 0 Z " fill="#000102" transform="translate(182,219)"/>
<path d="M0 0 C1.07894531 0.13664062 2.15789062 0.27328125 3.26953125 0.4140625 C6.72291847 0.84754207 10.17895386 1.25150169 13.63671875 1.6484375 C15.65369539 1.8902119 17.67062167 2.13240683 19.6875 2.375 C21.21600586 2.54515625 21.21600586 2.54515625 22.77539062 2.71875 C29.6036297 3.5583242 33.7649112 4.36155908 38.359375 9.78515625 C39.16383731 10.8720291 39.96042186 11.96476662 40.75 13.0625 C44.68597495 18.38003058 48.83230914 23.26391156 53.3828125 28.07421875 C55 30 55 30 55 32 C43.85188872 42.76134008 27.42950797 54.70001747 11.5625 55.625 C7.83001991 55.37092518 4.95249359 54.62652034 2.25 51.82421875 C-5.89960962 39.9308822 -4.30363826 22.33518614 -1.91821289 8.75683594 C-1.34249109 5.82209996 -0.69980388 2.90751851 0 0 Z " fill="#000202" transform="translate(188,295)"/>
<path d="M0 0 C13.42349946 3.82552656 26.37965729 13.00964411 36 23 C33.95444162 27.62660324 30.70227685 31.11546739 27.41796875 34.9140625 C24.92003384 37.88246349 24.92003384 37.88246349 23.42578125 41.2109375 C20.64214269 46.46675856 18.5175744 49.19278516 12.84765625 51.01074219 C2.83566671 53.33362971 -7.70026554 55.20666756 -18 55 C-20.11829709 45.49288094 -21.31537015 36.25444894 -21.375 26.5 C-21.38853516 25.59362793 -21.40207031 24.68725586 -21.41601562 23.75341797 C-21.36396152 15.87734267 -19.70684535 8.47191236 -15 2 C-10.2559839 -1.1626774 -5.54928304 -0.62674256 0 0 Z " fill="#000202" transform="translate(206,151)"/>
<path d="M0 0 C2.82596688 8.43053205 3.48990519 16.20602297 3.4375 25.0625 C3.4674707 26.86557617 3.4674707 26.86557617 3.49804688 28.70507812 C3.49336591 37.28528804 2.57276585 45.60825129 -3.625 52.0625 C-7.24412293 55.01494239 -9.67965059 55.34862559 -14.37890625 55.2734375 C-27.86424805 53.86662092 -38.95714863 44.31191624 -49 36 C-50.66461762 34.66410939 -52.33074693 33.33009388 -54 32 C-52.6701621 29.12600003 -51.17039491 26.81342316 -49.13671875 24.390625 C-48.57919922 23.71773438 -48.02167969 23.04484375 -47.44726562 22.3515625 C-46.28660949 20.96547371 -45.12516825 19.5800419 -43.96289062 18.1953125 C-43.12081055 17.17824219 -43.12081055 17.17824219 -42.26171875 16.140625 C-41.69751221 15.46330322 -41.13330566 14.78598145 -40.55200195 14.08813477 C-39.00179678 12.00241747 -37.97203805 9.93469825 -36.8359375 7.60546875 C-35.22563192 4.94286164 -34.4046291 4.14049675 -31.42797852 3.10693359 C-28.25650228 2.57310809 -25.14632903 2.274134 -21.9375 2.0625 C-19.77984246 1.86704612 -17.62228557 1.67047707 -15.46484375 1.47265625 C-14.512146 1.40312744 -13.55944824 1.33359863 -12.57788086 1.26196289 C-0.13023835 -0.00295996 -0.13023835 -0.00295996 0 0 Z " fill="#000102" transform="translate(312,295)"/>
<path d="M0 0 C5.18147119 3.91517649 7.05057504 9.95396885 8.00390625 16.12109375 C8.82786562 29.0717588 7.57658219 41.44147661 5.00390625 54.12109375 C-0.81305784 53.38201759 -0.81305784 53.38201759 -3.32373047 53.01000977 C-7.15103547 52.44934702 -10.89860546 52.05935886 -14.765625 51.91796875 C-21.9643862 51.48431717 -27.76785452 50.96568087 -32.84765625 45.42578125 C-35.67123639 41.8933673 -38.10988736 38.15731013 -40.50585938 34.32666016 C-42.99881296 30.63705618 -45.98098469 27.38820035 -48.99609375 24.12109375 C-44.08765691 13.42967189 -28.23475224 4.70649556 -17.93359375 0.12109375 C-12.39592229 -1.66601042 -5.41565659 -2.3845846 0 0 Z " fill="#000102" transform="translate(306.99609375,151.87890625)"/>
<path d="M0 0 C16.17848708 4.24964868 32.89051642 11.0626537 43 25 C44.55944339 28.11888678 44.28316275 30.5454145 44 34 C39.057692 45.81856261 26.40331259 52.97438346 15.05078125 57.83447266 C4.58342476 62 4.58342476 62 0 62 C-0.22139648 61.40574219 -0.44279297 60.81148438 -0.67089844 60.19921875 C-1.69272466 57.46442475 -2.7213135 54.73222053 -3.75 52 C-4.09804688 51.06542969 -4.44609375 50.13085938 -4.8046875 49.16796875 C-6.435453 44.84946011 -8.0914757 40.72963728 -10.328125 36.6875 C-12.19220874 33.01726651 -12.28035283 31.02756659 -11 27 C-9.79599731 23.64893268 -8.4825056 20.35408615 -7.125 17.0625 C-6.77308594 16.19431641 -6.42117188 15.32613281 -6.05859375 14.43164062 C-4.092766 9.59745827 -2.07218365 4.78948108 0 0 Z " fill="#000202" transform="translate(319,219)"/>
<path d="M0 0 C6.03165128 3.05890886 9.84347037 8.01073315 12.125 14.375 C13.28223532 22.42477972 11.72469745 28.68672602 7.125 35.375 C3.1212204 39.94768126 -1.40998362 42.02903062 -7.41796875 42.62890625 C-13.79429234 42.90154905 -18.69019117 42.24375232 -23.875 38.375 C-29.69613267 33.02059511 -31.90179667 27.89986312 -32.25 20 C-32.11172607 14.6291496 -31.25549647 10.62297837 -27.875 6.375 C-19.66109536 -1.26066948 -10.89865826 -4.40700779 0 0 Z " fill="#00D4FB" transform="translate(259.875,229.625)"/>
<path d="M0 0 C2.30561401 2.08764039 3.53561616 3.80863384 4.60546875 6.72265625 C4.99702148 7.77743164 4.99702148 7.77743164 5.39648438 8.85351562 C5.78803711 9.94696289 5.78803711 9.94696289 6.1875 11.0625 C6.46013672 11.79533203 6.73277344 12.52816406 7.01367188 13.28320312 C9 18.70453477 9 18.70453477 9 21 C1.32721195 23.40152224 -5.97383806 24.59378936 -14 25 C-13.49210937 24.11699219 -12.98421875 23.23398437 -12.4609375 22.32421875 C-8.21698053 14.93038534 -4.04396353 7.5058414 0 0 Z " fill="#000708" transform="translate(300,263)"/>
<path d="M0 0 C3.32933184 4.30193877 5.96831161 8.92343556 8.6875 13.625 C9.19861328 14.49640625 9.70972656 15.3678125 10.23632812 16.265625 C10.71908203 17.09835937 11.20183594 17.93109375 11.69921875 18.7890625 C12.14096436 19.54912598 12.58270996 20.30918945 13.0378418 21.09228516 C14 23 14 23 14 25 C6.86606248 24.48462048 -0.01812817 23.55994099 -7 22 C-6.67810532 13.95263294 -3.30664018 7.19977924 0 0 Z " fill="#000809" transform="translate(199,263)"/>
<path d="M0 0 C4.42671762 1.60205018 6.84446104 4.98437412 9.75 8.5 C10.25660156 9.09425781 10.76320313 9.68851563 11.28515625 10.30078125 C15 14.73656503 15 14.73656503 15 17 C5.76 17 -3.48 17 -13 17 C-10.52126117 12.86876862 -7.91114605 9.32542539 -4.8125 5.6875 C-4.34908203 5.13771484 -3.88566406 4.58792969 -3.40820312 4.02148438 C-2.27528137 2.67832972 -1.1380774 1.33878899 0 0 Z " fill="#000809" transform="translate(249,183)"/>
<path d="M0 0 C5.06316683 -0.15639125 9.50398438 0.37233929 14.4375 1.5 C15.67371094 1.7784375 16.90992188 2.056875 18.18359375 2.34375 C19.57771484 2.66859375 19.57771484 2.66859375 21 3 C20.43881662 7.95606897 19.3702944 12.22945118 17.5625 16.875 C16.91474609 18.57269531 16.91474609 18.57269531 16.25390625 20.3046875 C15 23 15 23 13 24 C10.82626954 20.3791912 8.66222771 16.75268765 6.5 13.125 C5.87996094 12.09246094 5.25992187 11.05992187 4.62109375 9.99609375 C4.03457031 9.00996094 3.44804687 8.02382812 2.84375 7.0078125 C2.02680664 5.64100342 2.02680664 5.64100342 1.19335938 4.24658203 C0 2 0 2 0 0 Z " fill="#000708" transform="translate(287,213)"/>
<path d="M0 0 C8.91 0 17.82 0 27 0 C24.11677569 5.04564254 22.05153905 8.35643602 18.25 12.4375 C17.45078125 13.30246094 16.6515625 14.16742188 15.828125 15.05859375 C15.22484375 15.69925781 14.6215625 16.33992188 14 17 C8.48898107 12.61367881 3.88876535 7.90997773 0 2 C0 1.34 0 0.68 0 0 Z " fill="#000304" transform="translate(237,301)"/>
<path d="M0 0 C-1.28924356 3.40202433 -2.7652076 6.50564554 -4.6015625 9.64453125 C-5.09140625 10.48564453 -5.58125 11.32675781 -6.0859375 12.19335938 C-6.84777344 13.48983398 -6.84777344 13.48983398 -7.625 14.8125 C-8.140625 15.69615234 -8.65625 16.57980469 -9.1875 17.49023438 C-10.45531114 19.66194789 -11.72622348 21.8317818 -13 24 C-15.54384735 22.72807632 -15.58575975 21.92200108 -16.5078125 19.2890625 C-16.77207031 18.53882813 -17.03632813 17.78859375 -17.30859375 17.015625 C-17.57800781 16.22671875 -17.84742188 15.4378125 -18.125 14.625 C-18.40214844 13.84382812 -18.67929688 13.06265625 -18.96484375 12.2578125 C-21 6.40297876 -21 6.40297876 -21 3 C-18.81462633 2.49078672 -16.62657569 1.99305563 -14.4375 1.5 C-12.61025391 1.08234375 -12.61025391 1.08234375 -10.74609375 0.65625 C-7.07777293 0.01362446 -3.71497397 -0.11474823 0 0 Z " fill="#000506" transform="translate(213,213)"/>
</svg>
