<?xml version="1.0" encoding="UTF-8"?>
<svg version="1.1" xmlns="http://www.w3.org/2000/svg" width="500" height="500">
<path d="M0 0 C165 0 330 0 500 0 C500 165 500 330 500 500 C335 500 170 500 0 500 C0 335 0 170 0 0 Z " fill="#000000" transform="translate(0,0)"/>
<path d="M0 0 C5.96750789 1.19350158 10.61250319 2.64878006 15 7 C16.48563642 11.41424112 16.38010831 15.65667859 16.29296875 20.28125 C16.30016434 21.56809692 16.30735992 22.85494385 16.31477356 24.18078613 C16.32497605 26.89864031 16.29975394 29.61319024 16.2487793 32.33056641 C16.1861755 35.80268496 16.20862278 39.26801738 16.25730419 42.74015045 C16.29294554 46.06694801 16.25886097 49.39187439 16.23046875 52.71875 C16.24554977 53.95951294 16.2606308 55.20027588 16.27616882 56.4786377 C16.04718893 64.89517208 16.04718893 64.89517208 13.02229309 68.08656311 C10.73841076 69.62619188 8.49434417 70.84074147 6 72 C4.98550781 72.63808594 3.97101563 73.27617187 2.92578125 73.93359375 C2.06339844 74.42988281 1.20101563 74.92617188 0.3125 75.4375 C-0.55761719 75.95183594 -1.42773438 76.46617187 -2.32421875 76.99609375 C-5.83342052 78.31268478 -7.40294553 78.08697398 -11 77 C-14.04192249 75.4969537 -16.92213684 73.77413595 -19.8125 72 C-20.58787109 71.5359375 -21.36324219 71.071875 -22.16210938 70.59375 C-27.79958791 67.20041209 -27.79958791 67.20041209 -29 66 C-29.44890015 61.94921056 -29.51157955 57.88429418 -29.625 53.8125 C-29.69589844 52.67490234 -29.76679688 51.53730469 -29.83984375 50.36523438 C-30.02301576 42.10803278 -30.02301576 42.10803278 -27.13452148 38.97949219 C-24.82110038 37.43416631 -22.50937637 36.19548475 -20 35 C-19.05769531 34.37351563 -18.11539063 33.74703125 -17.14453125 33.1015625 C-9.0961823 28.00562297 -9.0961823 28.00562297 -4 29 C-3.01 29.66 -2.02 30.32 -1 31 C-0.67 20.77 -0.34 10.54 0 0 Z " fill="#3F4036" transform="translate(257,197)"/>
<path d="M0 0 C3.09311524 1.45705531 5.97212824 3.19821753 8.875 5 C9.64585937 5.4640625 10.41671875 5.928125 11.2109375 6.40625 C16.77762277 9.77762277 16.77762277 9.77762277 18 11 C18.33686742 15.09571088 18.32504358 19.20471965 18.375 23.3125 C18.43107422 25.0440332 18.43107422 25.0440332 18.48828125 26.81054688 C18.57686003 35.28950444 18.57686003 35.28950444 15.9765625 38.4921875 C14.99429688 38.98976563 14.01203125 39.48734375 13 40 C11.72624497 40.79350623 10.45563157 41.59206859 9.1875 42.39453125 C7.79448022 43.2053739 6.39857913 44.01128447 5 44.8125 C4.30132812 45.23208984 3.60265625 45.65167969 2.8828125 46.08398438 C-2.27746731 49.03897479 -2.27746731 49.03897479 -5.82421875 48.84765625 C-8.48010331 47.81295796 -10.70730194 46.70314713 -13 45 C-13 44.01 -13 43.02 -13 42 C-14.03125 41.9175 -15.0625 41.835 -16.125 41.75 C-20.57241695 40.88920962 -23.77186157 39.22813843 -27 36 C-29.85343874 15.64474428 -29.85343874 15.64474428 -25.83251953 9.09960938 C-22.46438048 5.9319416 -18.28883053 4.50838119 -14 3 C-12.68670078 2.17948271 -11.38882503 1.33234623 -10.125 0.4375 C-6.07540366 -1.42531432 -4.33469867 -1.01347712 0 0 Z " fill="#040601" transform="translate(372,226)"/>
<path d="M0 0 C2.57260669 0.76139058 4.6451135 1.69888275 6.97753906 3.015625 C7.76902344 3.4590625 8.56050781 3.9025 9.37597656 4.359375 C10.59414062 5.05546875 10.59414062 5.05546875 11.83691406 5.765625 C12.66449219 6.2296875 13.49207031 6.69375 14.34472656 7.171875 C20.41821105 10.59692199 20.41821105 10.59692199 21.58691406 11.765625 C23.14981698 20.14331595 24.08152717 29.52874377 21.58691406 37.765625 C16.93064005 43.74021261 8.92184133 48.00956369 1.58691406 49.765625 C-7.01186488 48.74005191 -16.85374826 44.49757843 -22.41308594 37.765625 C-25.63402394 29.63613586 -25.5636827 19.91178781 -22.41308594 11.765625 C-18.52567461 6.89995425 -13.08646894 4.51182779 -7.31420898 2.49804688 C-0.66297131 -0.06439219 -0.66297131 -0.06439219 0 0 Z " fill="#82CB28" transform="translate(191.4130859375,225.234375)"/>
<path d="M0 0 C4.43611954 1.3698994 8.10914019 3.58057837 12.05078125 6 C12.82615234 6.4640625 13.60152344 6.928125 14.40039062 7.40625 C20.03786916 10.79958791 20.03786916 10.79958791 21.23828125 12 C21.32671918 14.44830426 21.35356877 16.86820599 21.3359375 19.31640625 C21.33452255 20.04746078 21.3331076 20.77851532 21.33164978 21.53172302 C21.32603533 23.87535632 21.31348047 26.21889539 21.30078125 28.5625 C21.29576811 30.14778508 21.29120488 31.73307166 21.28710938 33.31835938 C21.27606122 37.2122761 21.25878697 41.10612205 21.23828125 45 C17.71255841 44.20705133 15.14105943 42.89890062 12.05078125 41 C11.17035156 40.46375 10.28992188 39.9275 9.3828125 39.375 C7.23828125 38 7.23828125 38 6.23828125 37 C6.16502957 34.13732433 6.1458992 31.299281 6.17578125 28.4375 C6.18029297 27.63119141 6.18480469 26.82488281 6.18945312 25.99414062 C6.20127607 23.99606244 6.21921211 21.99802217 6.23828125 20 C0.93404237 17.65354856 -2.30871013 18.18233046 -7.76171875 20 C-7.65730469 21.15757812 -7.55289063 22.31515625 -7.4453125 23.5078125 C-6.67811563 35.63323311 -6.67811563 35.63323311 -9.66015625 39.39453125 C-11.98025597 40.87744288 -14.21160402 41.97378803 -16.76171875 43 C-17.75171875 43.66 -18.74171875 44.32 -19.76171875 45 C-20.75171875 45 -21.74171875 45 -22.76171875 45 C-25.14450864 16.10592321 -25.14450864 16.10592321 -21.37011719 9.60205078 C-17.46308117 5.87260731 -12.85650766 4.48883987 -7.76171875 3 C-6.89933594 2.43023437 -6.03695312 1.86046875 -5.1484375 1.2734375 C-2.76171875 0 -2.76171875 0 0 0 Z " fill="#3E3F35" transform="translate(132.76171875,225)"/>
<path d="M0 0 C2.97324128 1.52307018 5.82967638 3.20923177 8.6875 4.9375 C9.45900391 5.39318359 10.23050781 5.84886719 11.02539062 6.31835938 C16.70818114 9.70818114 16.70818114 9.70818114 19 12 C19.75 15.1875 19.75 15.1875 19 19 C14.64189988 23.19270733 10.03585899 26.15171712 4 27 C3.938125 25.906875 3.87625 24.81375 3.8125 23.6875 C3.36240191 19.928121 3.36240191 19.928121 0.75 18 C-2.42559922 16.84523665 -3.83220808 16.91628171 -7 18 C-7.99 18.66 -8.98 19.32 -10 20 C-10.78238875 24.10112982 -10.78238875 24.10112982 -10 28 C-7.5715198 30.42924172 -4.73751313 31.84136365 -1.6875 33.375 C-0.90181641 33.79910156 -0.11613281 34.22320312 0.69335938 34.66015625 C2.15422786 35.44840358 3.62213847 36.22383465 5.09887695 36.98193359 C7 38 7 38 10 40 C8.70538169 43.88385493 7.28058761 44.30534479 3.75 46.25 C2.79609375 46.79140625 1.8421875 47.3328125 0.859375 47.890625 C-2.55515203 49.21538685 -3.57925718 49.24979104 -7 48 C-9.9739787 46.4784122 -12.8297181 44.790743 -15.6875 43.0625 C-16.45900391 42.60681641 -17.23050781 42.15113281 -18.02539062 41.68164062 C-23.70818114 38.29181886 -23.70818114 38.29181886 -26 36 C-26.61635682 32.10901873 -26.60228424 28.18374359 -26.6875 24.25 C-26.75388672 23.16460937 -26.82027344 22.07921875 -26.88867188 20.9609375 C-27.0373904 13.11243742 -27.0373904 13.11243742 -24.16748047 10.03491211 C-21.84511183 8.47876381 -19.51176116 7.22266443 -17 6 C-15.35257812 4.93458984 -15.35257812 4.93458984 -13.671875 3.84765625 C-12.22554688 2.96400391 -12.22554688 2.96400391 -10.75 2.0625 C-9.77546875 1.45535156 -8.8009375 0.84820312 -7.796875 0.22265625 C-4.40208917 -1.26137722 -3.45186748 -1.28628541 0 0 Z " fill="#3E3F35" transform="translate(312,226)"/>
<path d="M0 0 C3.09311524 1.45705531 5.97212824 3.19821753 8.875 5 C9.64585937 5.4640625 10.41671875 5.928125 11.2109375 6.40625 C16.77762277 9.77762277 16.77762277 9.77762277 18 11 C18.33686742 15.09571088 18.32504358 19.20471965 18.375 23.3125 C18.43107422 25.0440332 18.43107422 25.0440332 18.48828125 26.81054688 C18.57686003 35.28950444 18.57686003 35.28950444 15.9765625 38.4921875 C14.99429688 38.98976563 14.01203125 39.48734375 13 40 C11.72624497 40.79350623 10.45563157 41.59206859 9.1875 42.39453125 C7.79448022 43.2053739 6.39857913 44.01128447 5 44.8125 C4.30132812 45.23208984 3.60265625 45.65167969 2.8828125 46.08398438 C-2.27265063 49.03621657 -2.27265063 49.03621657 -5.82421875 48.859375 C-8.41602083 47.83568297 -10.67378055 46.5286585 -13 45 C-12.34 44.34 -11.68 43.68 -11 43 C-8.54901444 43.39532025 -6.36095721 44.21301426 -4 45 C-2.04555017 44.21372482 -2.04555017 44.21372482 -0.05859375 42.91015625 C0.68970703 42.45576172 1.43800781 42.00136719 2.20898438 41.53320312 C2.98564453 41.04787109 3.76230469 40.56253906 4.5625 40.0625 C6.10316815 39.11214566 7.64603609 38.16534538 9.19140625 37.22265625 C9.87404541 36.79734619 10.55668457 36.37203613 11.26000977 35.93383789 C13 35 13 35 15 35 C16.54764825 22.35264992 16.54764825 22.35264992 12.36474609 10.96044922 C7.42774017 6.88821677 0.92316411 2.9650238 -5.62890625 3.0234375 C-8.87479019 4.3602925 -11.7630803 6.14490203 -14.6875 8.0625 C-20.75192308 12 -20.75192308 12 -23 12 C-22.91941151 15.79255672 -22.80654683 19.58347092 -22.6875 23.375 C-22.66494141 24.45523438 -22.64238281 25.53546875 -22.61914062 26.6484375 C-22.58369141 27.6796875 -22.54824219 28.7109375 -22.51171875 29.7734375 C-22.48553467 30.72653809 -22.45935059 31.67963867 -22.43237305 32.66162109 C-22.28968994 33.43328613 -22.14700684 34.20495117 -22 35 C-18.88214887 37.35355339 -18.88214887 37.35355339 -14 38 C-14 30.08 -14 22.16 -14 14 C-12.68 14 -11.36 14 -10 14 C-9.91285684 17.91652632 -9.85956015 21.83280311 -9.8125 25.75 C-9.78736328 26.86117187 -9.76222656 27.97234375 -9.73632812 29.1171875 C-9.72666016 30.18710937 -9.71699219 31.25703125 -9.70703125 32.359375 C-9.6913208 33.34389648 -9.67561035 34.32841797 -9.65942383 35.34277344 C-10.05034818 38.39282409 -10.96842944 39.74113723 -13 42 C-18.73178619 41.5414571 -22.85478 40.14522 -27 36 C-29.85343874 15.64474428 -29.85343874 15.64474428 -25.83251953 9.09960938 C-22.46438048 5.9319416 -18.28883053 4.50838119 -14 3 C-12.68670078 2.17948271 -11.38882503 1.33234623 -10.125 0.4375 C-6.07540366 -1.42531432 -4.33469867 -1.01347712 0 0 Z " fill="#77BB25" transform="translate(372,226)"/>
<path d="M0 0 C2.625 1.8125 2.625 1.8125 4 4 C4 4.99 4 5.98 4 7 C2.68 7 1.36 7 0 7 C-0.66 6.01 -1.32 5.02 -2 4 C-5.58357241 3.74984127 -5.58357241 3.74984127 -9 4 C-9.33 4.99 -9.66 5.98 -10 7 C-9.15695312 7.12117187 -8.31390625 7.24234375 -7.4453125 7.3671875 C-5.80175781 7.61855469 -5.80175781 7.61855469 -4.125 7.875 C-3.03445313 8.03742188 -1.94390625 8.19984375 -0.8203125 8.3671875 C2 9 2 9 4 11 C4.375 13.9375 4.375 13.9375 4 17 C1.79304958 19.19666161 0.40431384 19.94014512 -2.69140625 20.3984375 C-3.63886719 20.39070313 -4.58632813 20.38296875 -5.5625 20.375 C-6.98755859 20.38660156 -6.98755859 20.38660156 -8.44140625 20.3984375 C-11 20 -11 20 -12.83984375 18.7265625 C-14 17 -14 17 -14 13 C-13.01 13 -12.02 13 -11 13 C-10.01 14.485 -10.01 14.485 -9 16 C-7.02252878 16.36297936 -7.02252878 16.36297936 -4.875 16.1875 C-3.59625 16.125625 -2.3175 16.06375 -1 16 C-0.67 15.01 -0.34 14.02 0 13 C-0.75925781 12.89042969 -1.51851563 12.78085938 -2.30078125 12.66796875 C-3.29464844 12.50941406 -4.28851563 12.35085937 -5.3125 12.1875 C-6.29863281 12.03667969 -7.28476562 11.88585937 -8.30078125 11.73046875 C-11.15721891 10.95745306 -12.25826694 10.35133963 -14 8 C-14.4375 5.5 -14.4375 5.5 -14 3 C-9.83599139 -0.95533392 -5.45801008 -0.8341145 0 0 Z " fill="#7AC026" transform="translate(378,240)"/>
<path d="M0 0 C1.80328001 1.07222055 3.56688393 2.21125595 5.3125 3.375 C6.07763155 6.44738869 5.98959203 9.28986293 5.3125 12.375 C2.625 15.0625 2.625 15.0625 -0.6875 16.375 C-3.96146279 15.6136133 -5.87814465 14.24790357 -8.6875 12.375 C-9.45263155 9.30261131 -9.36459203 6.46013707 -8.6875 3.375 C-5.70631536 0.39381536 -4.22731616 -0.98309678 0 0 Z " fill="#010100" transform="translate(251.6875,242.625)"/>
<path d="M0 0 C1.11375 0.556875 1.11375 0.556875 2.25 1.125 C2.25 3.105 2.25 5.085 2.25 7.125 C0 8.25 0 8.25 -2.75 9.125 C-5.0625 8.25 -5.0625 8.25 -6.75 7.125 C-6.75 5.145 -6.75 3.165 -6.75 1.125 C-4.02098495 -0.69434337 -3.21400584 -1.02263822 0 0 Z " fill="#76B925" transform="translate(310.75,245.875)"/>
</svg>
