<?xml version="1.0" encoding="UTF-8"?>
<svg version="1.1" xmlns="http://www.w3.org/2000/svg" width="500" height="500">
<path d="M0 0 C165 0 330 0 500 0 C500 165 500 330 500 500 C335 500 170 500 0 500 C0 335 0 170 0 0 Z " fill="#000000" transform="translate(0,0)"/>
<path d="M0 0 C12.54289982 0.77635155 24.81657874 3.13880096 37.17163086 5.34301758 C39.41826092 5.73885162 41.66500524 6.13403771 43.91186523 6.52856445 C47.24502653 7.1141022 50.57781239 7.70141336 53.90951538 8.29519653 C59.4180059 9.27684337 64.92868396 10.23502591 70.44946289 11.14526367 C72.04589378 11.41175972 72.04589378 11.41175972 73.67457581 11.68363953 C75.69264043 12.01937169 77.71176872 12.34878964 79.73204041 12.67097473 C80.62613113 12.82080307 81.52022186 12.97063141 82.44140625 13.125 C83.22544327 13.25226974 84.00948029 13.37953949 84.817276 13.51066589 C86.73413086 14.03051758 86.73413086 14.03051758 88.73413086 16.03051758 C89.48705626 22.57965152 87.38187926 28.23519269 85.37475586 34.41333008 C85.02910583 35.50459198 84.68345581 36.59585388 84.32733154 37.72018433 C83.22232552 41.20170208 82.10356599 44.67861569 80.98413086 48.15551758 C80.24621744 50.47032413 79.50922893 52.78542574 78.77319336 55.10083008 C77.37226923 59.50498618 75.96698846 63.90771011 74.55810547 68.30932617 C72.56849764 74.53528481 70.62920185 80.77508959 68.73413086 87.03051758 C68.21336839 88.73887251 67.69254678 90.44720942 67.17163086 92.15551758 C66.9640918 92.8387207 66.75655273 93.52192383 66.54272461 94.22583008 C65.54119625 96.46112525 64.6594672 97.4930761 62.73413086 99.03051758 C59.98193359 99.73828125 59.98193359 99.73828125 56.66772461 100.19848633 C55.45922852 100.36928711 54.25073242 100.54008789 53.00561523 100.71606445 C51.74040039 100.88170898 50.47518555 101.04735352 49.17163086 101.21801758 C47.93348633 101.39526367 46.6953418 101.57250977 45.41967773 101.75512695 C41.86201942 102.242916 38.30507717 102.65368274 34.73413086 103.03051758 C33.42508789 103.20442017 33.42508789 103.20442017 32.08959961 103.38183594 C24.03716396 104.01422187 17.67752911 99.98049681 10.85913086 96.21801758 C9.63874401 95.56711215 8.41739383 94.91800955 7.19506836 94.27075195 C4.01331234 92.5649772 0.84878228 90.85594126 -2.26586914 89.03051758 C-3.03970947 88.65000244 -3.8135498 88.2694873 -4.61083984 87.87744141 C-7.37706466 84.79048304 -6.77169175 81.05730657 -6.69165039 77.12426758 C-6.68881546 76.22357544 -6.68598053 75.3228833 -6.68305969 74.39489746 C-6.66820476 71.43957143 -6.6240509 68.48551538 -6.57836914 65.53051758 C-6.56003482 63.49667425 -6.54295369 61.46281925 -6.52709961 59.42895508 C-6.47099681 53.29553479 -6.37111256 47.16325799 -6.26586914 41.03051758 C-6.23782944 39.20630201 -6.20998886 37.38208336 -6.18237305 35.55786133 C-6.10572436 30.71486958 -6.00370084 25.87278518 -5.89086914 21.03051758 C-5.87585358 20.29422119 -5.86083801 19.5579248 -5.84536743 18.79931641 C-5.80042684 16.73012437 -5.74246204 14.66174372 -5.67993164 12.59301758 C-5.64851074 11.43930664 -5.61708984 10.2855957 -5.5847168 9.09692383 C-4.6453161 0.06256486 -4.6453161 0.06256486 0 0 Z " fill="#040404" transform="translate(168.265869140625,150.969482421875)"/>
<path d="M0 0 C0.50509639 3.08252089 1.00317999 6.16613525 1.5 9.25 C1.64308594 10.12269531 1.78617187 10.99539062 1.93359375 11.89453125 C2.13662109 13.16103516 2.13662109 13.16103516 2.34375 14.453125 C2.46943359 15.22817383 2.59511719 16.00322266 2.72460938 16.80175781 C3 19 3 19 3 23 C3.57967529 22.90912109 4.15935059 22.81824219 4.7565918 22.72460938 C7.39963588 22.31250055 10.04354162 21.90619983 12.6875 21.5 C13.59951172 21.35691406 14.51152344 21.21382813 15.45117188 21.06640625 C16.33740234 20.93105469 17.22363281 20.79570312 18.13671875 20.65625 C18.94842529 20.53056641 19.76013184 20.40488281 20.59643555 20.27539062 C23.08605792 19.99013983 25.49632857 19.98166082 28 20 C29.56946224 29.17007306 31.1344706 38.34089188 32.69381714 47.51269054 C33.41804292 51.77161352 34.14379321 56.0302649 34.87304688 60.28833008 C35.57691477 64.39850814 36.2767527 68.50935394 36.97381592 72.6206913 C37.24030503 74.18818869 37.508239 75.75544116 37.77764893 77.32243919 C38.15508694 79.51925782 38.52735279 81.71689547 38.8984375 83.91479492 C39.21820557 85.79010139 39.21820557 85.79010139 39.54443359 87.70329285 C39.93523332 90.53131577 40.09528178 93.15297112 40 96 C39.4135672 96.09356277 38.8271344 96.18712555 38.22293091 96.28352356 C32.02399005 97.27266369 25.82518999 98.2626828 19.62646484 99.25317383 C17.32441627 99.6209045 15.0223339 99.98842371 12.72021484 100.35571289 C9.37848774 100.88890531 6.03688341 101.4228609 2.6953125 101.95703125 C1.6054303 102.13090363 0.5155481 102.304776 -0.60736084 102.48391724 C-5.56671328 103.27777058 -10.52332348 104.08258316 -15.47363281 104.93115234 C-16.30017365 105.07236008 -17.12671448 105.21356781 -17.978302 105.35905457 C-19.48292241 105.61774544 -20.98695145 105.87991326 -22.49020386 106.1464386 C-26.03512039 106.75634663 -29.40167891 107.13786171 -33 107 C-33.34019152 105.60582227 -33.67181779 104.20955342 -34 102.8125 C-34.185625 102.03519531 -34.37125 101.25789063 -34.5625 100.45703125 C-35.0146354 97.91780654 -35.02998784 95.57333152 -35 93 C-28.16847972 91.87685938 -21.33657163 90.75610101 -14.50439453 89.63696289 C-12.18236536 89.25632093 -9.86042403 88.87514271 -7.53857422 88.4934082 C-4.19261505 87.94339734 -0.84634008 87.39534421 2.5 86.84765625 C3.5305249 86.6778273 4.5610498 86.50799835 5.62280273 86.33302307 C11.07286481 85.44308848 16.51514485 84.64275646 22 84 C21.58637207 83.26885986 21.17274414 82.53771973 20.74658203 81.78442383 C19.2047085 79.05551118 17.66563925 76.32504147 16.12841797 73.59350586 C15.46416339 72.41449438 14.79881399 71.23609899 14.13232422 70.05834961 C13.17123273 68.35955935 12.21447803 66.65831789 11.2578125 64.95703125 C10.6817627 63.93585205 10.10571289 62.91467285 9.51220703 61.86254883 C8.14945717 59.28291659 7.02170469 56.72966167 6 54 C4.18411377 54.31807617 4.18411377 54.31807617 2.33154297 54.64257812 C-2.17392653 55.43039133 -6.68052994 56.21154386 -11.1875 56.99072266 C-13.13540545 57.32843299 -15.08300168 57.66793206 -17.03027344 58.00927734 C-19.83448552 58.50051572 -22.63975846 58.98524236 -25.4453125 59.46875 C-26.31116974 59.62186646 -27.17702698 59.77498291 -28.06912231 59.93273926 C-32.4365603 60.6788113 -36.54882446 61.17728722 -41 61 C-42.14504593 54.25657459 -43.28371372 47.51209449 -44.41796875 40.7668457 C-44.80452299 38.4726528 -45.19253281 36.17870465 -45.58203125 33.88500977 C-46.14185972 30.58673465 -46.69643554 27.28761271 -47.25 23.98828125 C-47.42499023 22.96414627 -47.59998047 21.94001129 -47.78027344 20.88484192 C-48.02052246 19.44391426 -48.02052246 19.44391426 -48.265625 17.97387695 C-48.40774414 17.13226517 -48.54986328 16.29065338 -48.69628906 15.42353821 C-49.00958577 12.92350792 -49.05276991 10.51686856 -49 8 C-43.61432845 6.60058542 -38.25653937 5.4320114 -32.7734375 4.4921875 C-32.02212555 4.36184113 -31.2708136 4.23149475 -30.49673462 4.09719849 C-28.92224518 3.82512236 -27.34748274 3.55462174 -25.77246094 3.28564453 C-23.37328909 2.87470695 -20.9757213 2.4551767 -18.578125 2.03515625 C-17.03915241 1.77031036 -15.50009272 1.50596999 -13.9609375 1.2421875 C-12.89666031 1.05473465 -12.89666031 1.05473465 -11.81088257 0.86349487 C-7.8283179 0.19229081 -4.03716979 -0.12525073 0 0 Z " fill="#FC5633" transform="translate(311,242)"/>
<path d="M0 0 C12.54289982 0.77635155 24.81657874 3.13880096 37.17163086 5.34301758 C39.41826092 5.73885162 41.66500524 6.13403771 43.91186523 6.52856445 C47.24502653 7.1141022 50.57781239 7.70141336 53.90951538 8.29519653 C59.4180059 9.27684337 64.92868396 10.23502591 70.44946289 11.14526367 C72.04589378 11.41175972 72.04589378 11.41175972 73.67457581 11.68363953 C75.69264043 12.01937169 77.71176872 12.34878964 79.73204041 12.67097473 C80.62613113 12.82080307 81.52022186 12.97063141 82.44140625 13.125 C83.22544327 13.25226974 84.00948029 13.37953949 84.817276 13.51066589 C86.73413086 14.03051758 86.73413086 14.03051758 88.73413086 16.03051758 C89.48705626 22.57965152 87.38187926 28.23519269 85.37475586 34.41333008 C85.02910583 35.50459198 84.68345581 36.59585388 84.32733154 37.72018433 C83.22232552 41.20170208 82.10356599 44.67861569 80.98413086 48.15551758 C80.24621744 50.47032413 79.50922893 52.78542574 78.77319336 55.10083008 C77.37226923 59.50498618 75.96698846 63.90771011 74.55810547 68.30932617 C72.56849764 74.53528481 70.62920185 80.77508959 68.73413086 87.03051758 C68.21336839 88.73887251 67.69254678 90.44720942 67.17163086 92.15551758 C66.9640918 92.8387207 66.75655273 93.52192383 66.54272461 94.22583008 C65.54119625 96.46112525 64.6594672 97.4930761 62.73413086 99.03051758 C59.98193359 99.73828125 59.98193359 99.73828125 56.66772461 100.19848633 C55.45922852 100.36928711 54.25073242 100.54008789 53.00561523 100.71606445 C51.74040039 100.88170898 50.47518555 101.04735352 49.17163086 101.21801758 C47.93348633 101.39526367 46.6953418 101.57250977 45.41967773 101.75512695 C41.86201942 102.242916 38.30507717 102.65368274 34.73413086 103.03051758 C33.42508789 103.20442017 33.42508789 103.20442017 32.08959961 103.38183594 C24.03716396 104.01422187 17.67752911 99.98049681 10.85913086 96.21801758 C9.63874401 95.56711215 8.41739383 94.91800955 7.19506836 94.27075195 C4.01331234 92.5649772 0.84878228 90.85594126 -2.26586914 89.03051758 C-3.03970947 88.65000244 -3.8135498 88.2694873 -4.61083984 87.87744141 C-7.37706466 84.79048304 -6.77169175 81.05730657 -6.69165039 77.12426758 C-6.68881546 76.22357544 -6.68598053 75.3228833 -6.68305969 74.39489746 C-6.66820476 71.43957143 -6.6240509 68.48551538 -6.57836914 65.53051758 C-6.56003482 63.49667425 -6.54295369 61.46281925 -6.52709961 59.42895508 C-6.47099681 53.29553479 -6.37111256 47.16325799 -6.26586914 41.03051758 C-6.23782944 39.20630201 -6.20998886 37.38208336 -6.18237305 35.55786133 C-6.10572436 30.71486958 -6.00370084 25.87278518 -5.89086914 21.03051758 C-5.87585358 20.29422119 -5.86083801 19.5579248 -5.84536743 18.79931641 C-5.80042684 16.73012437 -5.74246204 14.66174372 -5.67993164 12.59301758 C-5.64851074 11.43930664 -5.61708984 10.2855957 -5.5847168 9.09692383 C-4.6453161 0.06256486 -4.6453161 0.06256486 0 0 Z M5.73413086 12.03051758 C5.47153425 19.56766307 5.21063038 27.10486559 4.951828 34.6421423 C4.83157615 38.14280474 4.71076316 41.64344586 4.58862305 45.14404297 C4.44790733 49.17775772 4.30971278 53.21155555 4.17163086 57.24536133 C4.1278833 58.48946274 4.08413574 59.73356415 4.0390625 61.0153656 C3.8239211 67.35838444 3.68643413 73.68387143 3.73413086 80.03051758 C7.34070428 82.06513364 10.9718464 84.05140691 14.60913086 86.03051758 C16.12893555 86.8890332 16.12893555 86.8890332 17.67944336 87.76489258 C24.37022328 91.36762023 29.18295703 92.87270615 36.73413086 92.03051758 C37.59361328 91.96719238 38.4530957 91.90386719 39.33862305 91.83862305 C41.96355072 91.621739 44.56004252 91.30797603 47.17163086 90.96801758 C48.0552832 90.88358398 48.93893555 90.79915039 49.84936523 90.7121582 C52.33660771 90.38115635 54.42558895 90.01593765 56.73413086 89.03051758 C58.89561234 85.85881536 58.89561234 85.85881536 59.73413086 82.03051758 C60.04995117 81.00313477 60.36577148 79.97575195 60.69116211 78.91723633 C61.11461914 77.33362305 61.11461914 77.33362305 61.54663086 75.71801758 C63.10779613 70.08944852 64.85606799 64.56089072 66.73413086 59.03051758 C68.96253367 52.4517881 70.99704355 45.86135302 72.85522461 39.16723633 C73.90312964 35.42737969 75.04841442 31.72201375 76.21850586 28.01879883 C76.85964494 25.88886976 76.85964494 25.88886976 76.73413086 23.03051758 C49.44306785 18.18652147 49.44306785 18.18652147 22.10913086 13.59301758 C21.12372314 13.42962891 20.13831543 13.26624023 19.12304688 13.09790039 C18.21868896 12.95320312 17.31433105 12.80850586 16.38256836 12.65942383 C15.62121582 12.53639893 14.85986328 12.41337402 14.07543945 12.28662109 C11.28389806 11.98126896 8.54050008 12.01477641 5.73413086 12.03051758 Z " fill="#F8F8F8" transform="translate(168.265869140625,150.969482421875)"/>
<path d="M0 0 C6.19849177 0.16094526 12.31963444 1.24778392 18.42895508 2.2409668 C20.54658183 2.58261417 22.66649819 2.90597897 24.78710938 3.22851562 C26.14731203 3.44551037 27.50734494 3.66357247 28.8671875 3.8828125 C30.08881592 4.07657471 31.31044434 4.27033691 32.5690918 4.4699707 C35.88980268 5.27788454 38.12612808 6.227963 40.85546875 8.26953125 C41.66796875 10.95703125 41.66796875 10.95703125 41.85546875 13.26953125 C29.75924882 24.26953125 29.75924882 24.26953125 24.85546875 24.26953125 C24.85546875 24.92953125 24.85546875 25.58953125 24.85546875 26.26953125 C25.92796875 26.18703125 27.00046875 26.10453125 28.10546875 26.01953125 C31.85546875 26.26953125 31.85546875 26.26953125 34.35546875 27.95703125 C35.85546875 30.26953125 35.85546875 30.26953125 35.59765625 32.41015625 C34.64538411 36.07890996 33.59586516 39.71031256 32.48046875 43.33203125 C32.27164063 44.03908203 32.0628125 44.74613281 31.84765625 45.47460938 C30.69243769 49.22554768 29.63363443 52.43423105 26.85546875 55.26953125 C24.35852292 55.90704933 22.39803261 56.14308047 19.85546875 56.26953125 C18.97503906 56.3675 18.09460938 56.46546875 17.1875 56.56640625 C8.24652356 57.18058165 2.15615056 54.08580194 -5.14453125 49.26953125 C-7.14453125 47.26953125 -7.14453125 47.26953125 -7.45703125 43.83203125 C-7.14453125 40.26953125 -7.14453125 40.26953125 -5.95703125 38.33203125 C-3.4083894 36.83799982 -2.05094253 36.70242661 0.85546875 37.26953125 C2.91796875 39.64453125 2.91796875 39.64453125 4.85546875 42.26953125 C8.16167717 44.41893988 11.21886056 44.6410568 15.10546875 44.89453125 C16.183125 44.96929687 17.26078125 45.0440625 18.37109375 45.12109375 C19.1909375 45.17007813 20.01078125 45.2190625 20.85546875 45.26953125 C20.99984375 44.15578125 21.14421875 43.04203125 21.29296875 41.89453125 C21.85546875 38.26953125 21.85546875 38.26953125 22.85546875 36.26953125 C21.40914062 36.08777344 21.40914062 36.08777344 19.93359375 35.90234375 C18.03867188 35.65097656 18.03867188 35.65097656 16.10546875 35.39453125 C14.22601563 35.15089844 14.22601563 35.15089844 12.30859375 34.90234375 C9.35072046 34.36029005 7.31625448 33.95166256 4.85546875 32.26953125 C3.73046875 29.45703125 3.73046875 29.45703125 3.85546875 26.26953125 C7.135466 22.72358827 10.95267964 20.57766432 15.0859375 18.11328125 C15.98078857 17.57896484 16.87563965 17.04464844 17.79760742 16.49414062 C18.47670166 16.09001953 19.1557959 15.68589844 19.85546875 15.26953125 C19.1692041 15.12854004 18.48293945 14.98754883 17.77587891 14.84228516 C14.67573746 14.20082223 11.57813643 13.54783083 8.48046875 12.89453125 C7.40023437 12.6728125 6.32 12.45109375 5.20703125 12.22265625 C4.17578125 12.00351563 3.14453125 11.784375 2.08203125 11.55859375 C1.12893066 11.35959473 0.17583008 11.1605957 -0.80615234 10.95556641 C-3.14453125 10.26953125 -3.14453125 10.26953125 -5.14453125 8.26953125 C-5.39453125 5.26953125 -5.39453125 5.26953125 -5.14453125 2.26953125 C-3.14453125 0.26953125 -3.14453125 0.26953125 0 0 Z " fill="#F7F7F7" transform="translate(189.14453125,175.73046875)"/>
<path d="M0 0 C4.29 7.59 8.58 15.18 13 23 C9.99898261 25.00067826 8.59385578 25.41344905 5.13305664 25.96142578 C4.1451564 26.12144073 3.15725616 26.28145569 2.13941956 26.44631958 C1.07376266 26.61098724 0.00810577 26.77565491 -1.08984375 26.9453125 C-2.18591446 27.12005096 -3.28198517 27.29478943 -4.41127014 27.474823 C-6.72992781 27.84298569 -9.04915646 28.20756746 -11.36889648 28.56884766 C-14.92108788 29.12244224 -18.47136266 29.68720628 -22.02148438 30.25390625 C-24.27333335 30.61003421 -26.5252833 30.96552431 -28.77734375 31.3203125 C-29.84097641 31.48902863 -30.90460907 31.65774475 -32.00047302 31.83157349 C-32.99152542 31.98528412 -33.98257782 32.13899475 -35.00366211 32.29736328 C-35.87397568 32.43345001 -36.74428925 32.56953674 -37.64097595 32.70974731 C-40 33 -40 33 -44 33 C-44.67429967 29.60563644 -45.3380828 26.20929807 -46 22.8125 C-46.19078125 21.85279297 -46.3815625 20.89308594 -46.578125 19.90429688 C-46.75859375 18.97294922 -46.9390625 18.04160156 -47.125 17.08203125 C-47.29257812 16.22843018 -47.46015625 15.3748291 -47.6328125 14.49536133 C-48.00595229 11.95954897 -48.06412996 9.55918603 -48 7 C-45.68524893 5.84262446 -43.84216855 5.6380389 -41.2734375 5.31640625 C-40.32339844 5.19330078 -39.37335938 5.07019531 -38.39453125 4.94335938 C-36.40506565 4.69242419 -34.41548468 4.44240173 -32.42578125 4.19335938 C-26.81327113 3.46441291 -21.46223864 2.48243188 -16 1 C-10.38712351 -0.22019054 -6.10420398 0 0 0 Z " fill="#C5043B" transform="translate(316,300)"/>
<path d="M0 0 C0.34064639 3.31178954 0.67114622 6.62452037 1 9.9375 C1.09539062 10.86369141 1.19078125 11.78988281 1.2890625 12.74414062 C1.85741047 18.52911107 2.09538785 24.18730276 2 30 C-4.65096518 34.59819815 -9.95570976 35.88677215 -18 35 C-19.33643501 34.67932827 -20.6704217 34.34800925 -22 34 C-22.33773438 32.77023437 -22.67546875 31.54046875 -23.0234375 30.2734375 C-23.47387489 28.64060198 -23.92440038 27.00779076 -24.375 25.375 C-24.59671875 24.56675781 -24.8184375 23.75851562 -25.046875 22.92578125 C-25.99462338 19.4971621 -26.95085111 16.13557178 -28.1640625 12.7890625 C-29.07983082 9.73364857 -29.15105727 7.17220261 -29 4 C-25.2931535 3.32488531 -21.58431256 2.66141959 -17.875 2 C-16.30492187 1.71382813 -16.30492187 1.71382813 -14.703125 1.421875 C-13.68476563 1.24140625 -12.66640625 1.0609375 -11.6171875 0.875 C-10.21895752 0.62363281 -10.21895752 0.62363281 -8.79248047 0.3671875 C-5.8315694 -0.0221472 -2.98298238 -0.06158415 0 0 Z " fill="#E5DFDF" transform="translate(304,256)"/>
<path d="M0 0 C1.85546875 0.13671875 1.85546875 0.13671875 4 1 C5.23828125 3.51953125 5.23828125 3.51953125 6.3125 6.8125 C12.14632634 22.95686533 22.30584217 37.24596945 38 45 C44.93056363 47.91372763 51.51704684 50.10736346 59 51 C59 49.02 59 47.04 59 45 C63 45 63 45 64.73828125 46.35546875 C68.87920344 51.17455686 68.87920344 51.17455686 69.375 54.5625 C67.20227798 58.41414358 63.76586701 60.75896258 60 63 C59.34 63 58.68 63 58 63 C58.33 60.36 58.66 57.72 59 55 C58.45214844 54.99742187 57.90429688 54.99484375 57.33984375 54.9921875 C40.98064326 54.19417772 27.10636287 44.9227447 16.05859375 33.40234375 C8.12232784 24.14085697 1.31956564 12.21365407 0 0 Z " fill="#EEEEEE" transform="translate(187,263)"/>
<path d="M0 0 C0 2.31 0 4.62 0 7 C1.17175781 7.42410156 2.34351563 7.84820312 3.55078125 8.28515625 C24.73305599 16.1156455 39.87172542 27.77348967 49.63671875 48.46875 C52.16768796 54.67651402 53.65963508 60.30615654 54 67 C53.01 67 52.02 67 51 67 C50.70867187 66.05640625 50.41734375 65.1128125 50.1171875 64.140625 C44.30885089 45.75758867 35.62276827 28.58087262 17.93261719 19.10644531 C11.49239242 15.83240344 5.05711151 13.51223818 -2 12 C-2 14.31 -2 16.62 -2 19 C-4.60388898 18.62642278 -5.74294757 18.28877098 -7.51953125 16.29296875 C-7.94621094 15.59816406 -8.37289063 14.90335938 -8.8125 14.1875 C-9.25207031 13.50042969 -9.69164062 12.81335938 -10.14453125 12.10546875 C-11 10 -11 10 -10.8828125 7.94140625 C-9.72979211 5.40578176 -8.31704182 4.36446395 -6.0625 2.75 C-5.35222656 2.22921875 -4.64195312 1.7084375 -3.91015625 1.171875 C-2 0 -2 0 0 0 Z " fill="#EFEFEF" transform="translate(279,172)"/>
<path d="M0 0 C1.96116191 3.46660387 3.918213 6.93549285 5.87158203 10.40649414 C6.53583661 11.58550562 7.20118601 12.76390101 7.86767578 13.94165039 C8.82876727 15.64044065 9.78552197 17.34168211 10.7421875 19.04296875 C11.3182373 20.06414795 11.89428711 21.08532715 12.48779297 22.13745117 C13.85054283 24.71708341 14.97829531 27.27033833 16 30 C4.02413848 32.52197554 -7.99195947 34.7351011 -20.0625 36.75 C-20.73178528 36.86250092 -21.40107056 36.97500183 -22.09063721 37.09091187 C-24.00913992 37.41258457 -25.92838567 37.72981598 -27.84765625 38.046875 C-29.5184021 38.32289551 -29.5184021 38.32289551 -31.22290039 38.60449219 C-34 39 -34 39 -37 39 C-37 38.34 -37 37.68 -37 37 C-38.32 36.67 -39.64 36.34 -41 36 C-40.37803741 35.901996 -39.75607483 35.803992 -39.11526489 35.70301819 C-32.65872813 34.68498285 -26.20293462 33.66233218 -19.74755859 32.63696289 C-17.33628908 32.2545854 -14.92483074 31.87339668 -12.51318359 31.4934082 C-9.05255956 30.94792965 -5.59263068 30.39821993 -2.1328125 29.84765625 C-1.04944611 29.6778273 0.03392029 29.50799835 1.15011597 29.33302307 C2.65144577 29.09288734 2.65144577 29.09288734 4.18310547 28.84790039 C5.06690887 28.70800186 5.95071228 28.56810333 6.86129761 28.42396545 C9.04054151 28.09004382 9.04054151 28.09004382 11 27 C10.63648438 26.37432129 10.27296875 25.74864258 9.8984375 25.10400391 C8.26116246 22.28022923 6.63050984 19.45268598 5 16.625 C4.42765625 15.64015625 3.8553125 14.6553125 3.265625 13.640625 C2.72421875 12.69960938 2.1828125 11.75859375 1.625 10.7890625 C1.12226563 9.91975098 0.61953125 9.05043945 0.1015625 8.15478516 C-1 6 -1 6 -1 4 C-4.50102287 4.45072508 -8.00058461 4.91197303 -11.5 5.375 C-12.48226563 5.50132812 -13.46453125 5.62765625 -14.4765625 5.7578125 C-18.8282444 6.33803675 -23.09310711 6.95024844 -27.34375 8.0625 C-30.62255776 8.90321994 -33.63403238 9.37255243 -37 9.625 C-37.94875 9.69976562 -38.8975 9.77453125 -39.875 9.8515625 C-40.926875 9.92503906 -40.926875 9.92503906 -42 10 C-41.67 8.68 -41.34 7.36 -41 6 C-35.96547497 5.14027034 -30.93007506 4.28593459 -25.89379883 3.43652344 C-24.18163524 3.14697946 -22.46971735 2.85597865 -20.75805664 2.56347656 C-18.29376796 2.14262215 -15.82863516 1.7270628 -13.36328125 1.3125 C-12.60163162 1.18125732 -11.83998199 1.05001465 -11.05525208 0.91479492 C-7.33271296 0.29404648 -3.7764194 -0.15667081 0 0 Z " fill="#1A0406" transform="translate(317,296)"/>
<path d="M0 0 C8.60832995 5.30554214 16.81923598 11.06446757 25 17 C21.75972157 18.84494322 18.79552055 19.53659594 15.125 20.125 C14.11695313 20.29257812 13.10890625 20.46015625 12.0703125 20.6328125 C9.01438252 20.99827995 6.07442109 21.06424163 3 21 C2.49576443 18.25071558 1.99646574 15.50068857 1.5 12.75 C1.35691406 11.97269531 1.21382813 11.19539062 1.06640625 10.39453125 C0.93105469 9.64042969 0.79570312 8.88632813 0.65625 8.109375 C0.46772461 7.07248535 0.46772461 7.07248535 0.27539062 6.01464844 C0 4 0 4 0 0 Z " fill="#8C0C3C" transform="translate(313,241)"/>
<path d="M0 0 C0 0.99 0 1.98 0 3 C-3.63 3.33 -7.26 3.66 -11 4 C-11 5.32 -11 6.64 -11 8 C-8.0703125 7.21875 -8.0703125 7.21875 -5.140625 6.4375 C-3 6 -3 6 1 6 C1.2852991 9.37920934 1.42276957 12.62868367 1 16 C-1.0625 18.1875 -1.0625 18.1875 -4 19 C-7.8125 18.6875 -7.8125 18.6875 -11 18 C-11.33 16.35 -11.66 14.7 -12 13 C-11.01 13 -10.02 13 -9 13 C-9 13.66 -9 14.32 -9 15 C-7.02 14.67 -5.04 14.34 -3 14 C-2.67 12.68 -2.34 11.36 -2 10 C-2.515625 10.165 -3.03125 10.33 -3.5625 10.5 C-6.73363876 11.15049 -9.77218334 11.0620734 -13 11 C-13.66 8.03 -14.32 5.06 -15 2 C-9.75614911 0.2520497 -5.52677733 -0.19392201 0 0 Z " fill="#971D4B" transform="translate(298,265)"/>
<path d="M0 0 C-0.63671875 1.921875 -0.63671875 1.921875 -2 4 C-4.64453125 4.828125 -4.64453125 4.828125 -7.8125 5.25 C-9.36904297 5.47429687 -9.36904297 5.47429687 -10.95703125 5.703125 C-13.66572796 5.96738809 -16.28145952 6.06030034 -19 6 C-18.67 4.68 -18.34 3.36 -18 2 C-16.12612523 1.6603981 -14.25083303 1.32861309 -12.375 1 C-11.33085937 0.814375 -10.28671875 0.62875 -9.2109375 0.4375 C-6.09425135 0.01284203 -3.14069188 -0.07545206 0 0 Z " fill="#2A070A" transform="translate(294,300)"/>
<path d="M0 0 C2.29633824 3.44450737 2.54016485 5.93812283 3 10 C2.34 10 1.68 10 1 10 C0.34 9.01 -0.32 8.02 -1 7 C-1.66 7.66 -2.32 8.32 -3 9 C-3.66 8.34 -4.32 7.68 -5 7 C-5 8.65 -5 10.3 -5 12 C-5.99 11.67 -6.98 11.34 -8 11 C-8.33 7.7 -8.66 4.4 -9 1 C-5.535 2.98 -5.535 2.98 -2 5 C-1.34 3.35 -0.68 1.7 0 0 Z " fill="#E1C5CD" transform="translate(307,309)"/>
<path d="M0 0 C0.66 0 1.32 0 2 0 C2.33 3.3 2.66 6.6 3 10 C2.34 10 1.68 10 1 10 C0.67 9.01 0.34 8.02 0 7 C-2.01508358 6.26676204 -2.01508358 6.26676204 -4 6 C-4 7.65 -4 9.3 -4 11 C-4.66 11 -5.32 11 -6 11 C-6.33 7.7 -6.66 4.4 -7 1 C-6.34 1 -5.68 1 -5 1 C-5 1.99 -5 2.98 -5 4 C-3.35 4 -1.7 4 0 4 C0 2.68 0 1.36 0 0 Z " fill="#E3D5D9" transform="translate(285,313)"/>
<path d="M0 0 C0.66 0.66 1.32 1.32 2 2 C-2.95 2.66 -7.9 3.32 -13 4 C-12.67 3.01 -12.34 2.02 -12 1 C-10.29296875 0.234375 -10.29296875 0.234375 -8.1875 -0.25 C-7.50042969 -0.42015625 -6.81335938 -0.5903125 -6.10546875 -0.765625 C-3.75279754 -1.0275179 -2.22105574 -0.80088383 0 0 Z " fill="#150506" transform="translate(332,261)"/>
<path d="M0 0 C-0.33 1.65 -0.66 3.3 -1 5 C-2.98 5 -4.96 5 -7 5 C-7 4.34 -7 3.68 -7 3 C-8.32 2.67 -9.64 2.34 -11 2 C-11 1.67 -11 1.34 -11 1 C-7.26513121 0.4254048 -3.78706732 0 0 0 Z " fill="#E0D7DB" transform="translate(296,275)"/>
<path d="M0 0 C0 0.66 0 1.32 0 2 C-0.99 2 -1.98 2 -3 2 C-2.67 4.97 -2.34 7.94 -2 11 C-2.66 11 -3.32 11 -4 11 C-5.35439668 8.29120665 -5.06501451 5.99066732 -5 3 C-6.32 3 -7.64 3 -9 3 C-9 2.34 -9 1.68 -9 1 C-5.92677456 0.08941469 -3.19902639 -0.08886184 0 0 Z " fill="#E1C8CF" transform="translate(297,311)"/>
<path d="M0 0 C0.66 0 1.32 0 2 0 C2.33 2.64 2.66 5.28 3 8 C4.65 8 6.3 8 8 8 C7.67 8.66 7.34 9.32 7 10 C5.02 10 3.04 10 1 10 C-0.1577506 6.52674819 -0.06866652 3.63932552 0 0 Z " fill="#E2CFD5" transform="translate(311,308)"/>
<path d="M0 0 C3.3 0 6.6 0 10 0 C10 0.66 10 1.32 10 2 C7.24921116 2.91692961 5.64051087 3.10886083 2.8125 3.0625 C0.9253125 3.0315625 0.9253125 3.0315625 -1 3 C-0.67 2.01 -0.34 1.02 0 0 Z " fill="#140205" transform="translate(288,330)"/>
<path d="M0 0 C4.93928888 -0.3367697 5.78492722 -0.16130459 10 3 C6.37 3.33 2.74 3.66 -1 4 C-0.67 2.68 -0.34 1.36 0 0 Z " fill="#34060D" transform="translate(276,302)"/>
<path d="M0 0 C1.98 0 3.96 0 6 0 C5.67 0.99 5.34 1.98 5 3 C3.02 3 1.04 3 -1 3 C-0.67 2.01 -0.34 1.02 0 0 Z " fill="#1C0905" transform="translate(282,301)"/>
</svg>
