<?xml version="1.0" encoding="UTF-8"?>
<svg version="1.1" xmlns="http://www.w3.org/2000/svg" width="500" height="500">
<path d="M0 0 C165 0 330 0 500 0 C500 165 500 330 500 500 C335 500 170 500 0 500 C0 335 0 170 0 0 Z " fill="#000000" transform="translate(0,0)"/>
<path d="M0 0 C0.87735306 -0.00730133 1.75470612 -0.01460266 2.65864563 -0.02212524 C5.54211271 -0.0382612 8.42330457 -0.01118632 11.30664062 0.01806641 C13.32010903 0.01910456 15.33357949 0.01806547 17.3470459 0.01504517 C21.56028639 0.01522427 25.77275879 0.03601127 29.98583984 0.07226562 C35.37617957 0.1176404 40.765398 0.1187251 46.15587616 0.10523033 C50.3116038 0.09853525 54.46707755 0.11183977 58.62275696 0.1314888 C60.6097938 0.13916643 62.59685895 0.14150019 64.58390808 0.13831711 C67.36507606 0.13757216 70.14482703 0.16291217 72.92578125 0.1953125 C73.74053421 0.19035767 74.55528717 0.18540283 75.39472961 0.18029785 C80.75882152 0.27962831 84.84474105 1.1523723 88.96289062 4.74462891 C93.40743462 9.86417088 94.70598934 14.52496153 94.67651367 21.17822266 C94.69222979 22.0095723 94.7079459 22.84092194 94.72413826 23.69746399 C94.76997756 26.5259523 94.77892666 29.35329647 94.78710938 32.18212891 C94.81025184 34.267757 94.83485982 36.35336922 94.86076355 38.43896484 C94.93198907 45.17497115 94.95091325 51.91061883 94.95976925 58.64696503 C94.96298705 60.80942661 94.96773949 62.97188048 94.97284698 65.13433838 C95.01900394 85.31614813 94.97525902 105.49694517 94.86091805 125.6784668 C94.85086802 127.4536132 94.84083222 129.22875969 94.83081055 131.00390625 C94.82582641 131.88522594 94.82084226 132.76654564 94.81570709 133.67457199 C94.77628195 140.92855705 94.7567851 148.18250971 94.740794 155.43657875 C94.72411904 162.52645412 94.6922945 169.61616102 94.64894789 176.70592308 C94.62363016 180.90071131 94.60454198 185.09529245 94.60157204 189.29016113 C94.59841738 193.19795707 94.57641225 197.10519971 94.54001617 201.0128231 C94.52994313 202.43819715 94.52655535 203.86363747 94.53054619 205.28904152 C94.54840476 213.17904029 94.34867318 219.05272595 89.96289062 225.74462891 C84.75742246 230.6961718 80.36426361 230.89901435 73.45581055 230.92163086 C72.15287804 230.93148766 72.15287804 230.93148766 70.82362366 230.94154358 C67.94686802 230.96126671 65.07016455 230.97293652 62.19335938 230.98291016 C61.21066889 230.98698568 60.2279784 230.99106121 59.21550941 230.99526024 C54.01501297 231.016116 48.81454289 231.03042031 43.61401367 231.03979492 C38.24377933 231.05086296 32.87395892 231.08526895 27.50387096 231.12496662 C23.37314586 231.15111397 19.24251972 231.15948505 15.11171913 231.1630764 C13.13218704 231.16794661 11.15265949 231.17957293 9.17320824 231.1981144 C6.40118983 231.22246743 3.63024698 231.22154793 0.8581543 231.21459961 C-0.36476822 231.2338147 -0.36476822 231.2338147 -1.61239624 231.25341797 C-6.88897849 231.20528308 -9.8318759 230.20503589 -14.03710938 226.74462891 C-19.12511606 221.09128815 -20.33458845 217.10883551 -20.30453491 209.56608582 C-20.30906603 208.7345624 -20.31359714 207.90303898 -20.31826556 207.04631788 C-20.33094093 204.25583861 -20.32928716 201.46555373 -20.32763672 198.67504883 C-20.33362004 196.67598723 -20.34042513 194.67692794 -20.34799194 192.6778717 C-20.36567988 187.24391524 -20.37034852 181.81002174 -20.37162352 176.37603927 C-20.37352161 171.84076753 -20.38087819 167.3055105 -20.38796771 162.77024442 C-20.40426015 152.0698852 -20.40913591 141.36955965 -20.40771484 130.66918945 C-20.40651342 119.62992805 -20.42761361 108.59086215 -20.45920217 97.55165023 C-20.48535209 88.07552075 -20.49608266 78.59945517 -20.49480402 69.12328988 C-20.49429398 63.4629389 -20.50000054 57.80276158 -20.52116013 52.14244652 C-20.54052057 46.81788963 -20.54068185 41.49367247 -20.52612686 36.16910362 C-20.5240349 34.21600346 -20.52876269 32.26288216 -20.54084778 30.30981827 C-20.55629157 27.6408539 -20.54699804 24.97306217 -20.53158569 22.30412292 C-20.54187282 21.53348784 -20.55215995 20.76285276 -20.5627588 19.9688651 C-20.48178469 13.61176089 -18.47538557 9.73883488 -14.43294525 4.77471352 C-9.7564323 0.57138193 -6.18476208 -0.11604671 0 0 Z " fill="#010101" transform="translate(213.037109375,134.25537109375)"/>
<path d="M0 0 C0.87735306 -0.00730133 1.75470612 -0.01460266 2.65864563 -0.02212524 C5.54211271 -0.0382612 8.42330457 -0.01118632 11.30664062 0.01806641 C13.32010903 0.01910456 15.33357949 0.01806547 17.3470459 0.01504517 C21.56028639 0.01522427 25.77275879 0.03601127 29.98583984 0.07226562 C35.37617957 0.1176404 40.765398 0.1187251 46.15587616 0.10523033 C50.3116038 0.09853525 54.46707755 0.11183977 58.62275696 0.1314888 C60.6097938 0.13916643 62.59685895 0.14150019 64.58390808 0.13831711 C67.36507606 0.13757216 70.14482703 0.16291217 72.92578125 0.1953125 C73.74053421 0.19035767 74.55528717 0.18540283 75.39472961 0.18029785 C80.75882152 0.27962831 84.84474105 1.1523723 88.96289062 4.74462891 C93.40743462 9.86417088 94.70598934 14.52496153 94.67651367 21.17822266 C94.69222979 22.0095723 94.7079459 22.84092194 94.72413826 23.69746399 C94.76997756 26.5259523 94.77892666 29.35329647 94.78710938 32.18212891 C94.81025184 34.267757 94.83485982 36.35336922 94.86076355 38.43896484 C94.93198907 45.17497115 94.95091325 51.91061883 94.95976925 58.64696503 C94.96298705 60.80942661 94.96773949 62.97188048 94.97284698 65.13433838 C95.01900394 85.31614813 94.97525902 105.49694517 94.86091805 125.6784668 C94.85086802 127.4536132 94.84083222 129.22875969 94.83081055 131.00390625 C94.82582641 131.88522594 94.82084226 132.76654564 94.81570709 133.67457199 C94.77628195 140.92855705 94.7567851 148.18250971 94.740794 155.43657875 C94.72411904 162.52645412 94.6922945 169.61616102 94.64894789 176.70592308 C94.62363016 180.90071131 94.60454198 185.09529245 94.60157204 189.29016113 C94.59841738 193.19795707 94.57641225 197.10519971 94.54001617 201.0128231 C94.52994313 202.43819715 94.52655535 203.86363747 94.53054619 205.28904152 C94.54840476 213.17904029 94.34867318 219.05272595 89.96289062 225.74462891 C84.75742246 230.6961718 80.36426361 230.89901435 73.45581055 230.92163086 C72.15287804 230.93148766 72.15287804 230.93148766 70.82362366 230.94154358 C67.94686802 230.96126671 65.07016455 230.97293652 62.19335938 230.98291016 C61.21066889 230.98698568 60.2279784 230.99106121 59.21550941 230.99526024 C54.01501297 231.016116 48.81454289 231.03042031 43.61401367 231.03979492 C38.24377933 231.05086296 32.87395892 231.08526895 27.50387096 231.12496662 C23.37314586 231.15111397 19.24251972 231.15948505 15.11171913 231.1630764 C13.13218704 231.16794661 11.15265949 231.17957293 9.17320824 231.1981144 C6.40118983 231.22246743 3.63024698 231.22154793 0.8581543 231.21459961 C-0.36476822 231.2338147 -0.36476822 231.2338147 -1.61239624 231.25341797 C-6.88897849 231.20528308 -9.8318759 230.20503589 -14.03710938 226.74462891 C-19.12511606 221.09128815 -20.33458845 217.10883551 -20.30453491 209.56608582 C-20.30906603 208.7345624 -20.31359714 207.90303898 -20.31826556 207.04631788 C-20.33094093 204.25583861 -20.32928716 201.46555373 -20.32763672 198.67504883 C-20.33362004 196.67598723 -20.34042513 194.67692794 -20.34799194 192.6778717 C-20.36567988 187.24391524 -20.37034852 181.81002174 -20.37162352 176.37603927 C-20.37352161 171.84076753 -20.38087819 167.3055105 -20.38796771 162.77024442 C-20.40426015 152.0698852 -20.40913591 141.36955965 -20.40771484 130.66918945 C-20.40651342 119.62992805 -20.42761361 108.59086215 -20.45920217 97.55165023 C-20.48535209 88.07552075 -20.49608266 78.59945517 -20.49480402 69.12328988 C-20.49429398 63.4629389 -20.50000054 57.80276158 -20.52116013 52.14244652 C-20.54052057 46.81788963 -20.54068185 41.49367247 -20.52612686 36.16910362 C-20.5240349 34.21600346 -20.52876269 32.26288216 -20.54084778 30.30981827 C-20.55629157 27.6408539 -20.54699804 24.97306217 -20.53158569 22.30412292 C-20.54187282 21.53348784 -20.55215995 20.76285276 -20.5627588 19.9688651 C-20.48178469 13.61176089 -18.47538557 9.73883488 -14.43294525 4.77471352 C-9.7564323 0.57138193 -6.18476208 -0.11604671 0 0 Z M-15.03710938 7.74462891 C-17.55123702 13.47159742 -18.47354338 18.03226797 -18.4180603 24.24560547 C-18.42274027 25.06350681 -18.42742025 25.88140816 -18.43224204 26.72409439 C-18.44413786 29.44464947 -18.43475617 32.16469575 -18.42529297 34.88525391 C-18.42936108 36.84387504 -18.4347043 38.80249388 -18.44122314 40.7611084 C-18.45487403 46.06684521 -18.44960724 51.37240657 -18.44008589 56.67814636 C-18.43247778 62.23709579 -18.4395381 67.79603044 -18.44424438 73.35498047 C-18.44969857 82.68931773 -18.44251913 92.02358372 -18.42822266 101.35791016 C-18.41189683 112.14159481 -18.41718557 122.92510929 -18.43370187 133.70878983 C-18.4473263 142.97610554 -18.44923171 152.2433701 -18.44138587 161.5106926 C-18.43671463 167.04186542 -18.43606943 172.57295832 -18.44599533 178.10412598 C-18.45467659 183.30477342 -18.44862177 188.50520195 -18.43131256 193.70582581 C-18.42735393 195.61173642 -18.42847105 197.51766553 -18.43510056 199.42356873 C-18.44333086 202.03050996 -18.43297678 204.63675513 -18.4180603 207.24365234 C-18.42475247 207.99308231 -18.43144463 208.74251228 -18.43833959 209.51465225 C-18.37614684 215.14047652 -17.51852514 220.99758371 -13.62062871 225.31274033 C-8.55503895 229.69333778 -4.30424186 229.89662576 2.1027832 229.90576172 C2.93239059 229.91072662 3.76199799 229.91569153 4.616745 229.92080688 C7.36364571 229.93542194 10.11048866 229.94222961 12.85742188 229.94775391 C14.76690167 229.95350614 16.67638145 229.95926387 18.58586121 229.96502686 C22.59150461 229.97553514 26.59712795 229.98137886 30.6027832 229.98486328 C35.73081051 229.99034596 40.85857201 230.0143699 45.986516 230.04283524 C49.93194854 230.06147687 53.87731728 230.06666804 57.82279015 230.06819916 C59.71299377 230.07122304 61.60319634 230.07924266 63.4933567 230.09238434 C66.14071378 230.1094758 68.7874243 230.10755701 71.43481445 230.10107422 C72.21269318 230.110289 72.9905719 230.11950378 73.79202271 230.1289978 C79.3043765 230.0868014 83.48134941 229.00807742 87.60742188 225.24462891 C91.7257063 219.95559473 92.11159009 216.1480926 92.11006165 209.64164734 C92.11373833 208.80618923 92.11741502 207.97073111 92.12120312 207.10995609 C92.13224829 204.30026729 92.1360852 201.49061547 92.13989258 198.6809082 C92.14615652 196.67052086 92.15280326 194.66013467 92.1598053 192.64974976 C92.17721956 187.18069472 92.18776791 181.71164843 92.19601083 176.24257255 C92.20115936 172.82715245 92.20723511 169.41173508 92.21352196 165.99631691 C92.23257396 155.31439394 92.24680591 144.63247789 92.25513393 133.9505412 C92.26491185 121.61204974 92.29124593 109.27373742 92.33163482 96.93530911 C92.3617691 87.40317273 92.37660019 77.87108778 92.37991494 68.33890468 C92.38226819 62.64334821 92.39126465 56.94798311 92.41637611 51.25247765 C92.4396152 45.8951218 92.44390677 40.53808391 92.43361473 35.18069077 C92.43311827 33.21426525 92.439471 31.24782431 92.45317078 29.28144646 C92.47082874 26.59676864 92.46381379 23.91323949 92.45063782 21.2285614 C92.46160706 20.45044041 92.47257631 19.67231942 92.48387796 18.870619 C92.42228303 13.6722592 91.23072904 10.75607399 87.96289062 6.74462891 C84.07419212 3.23531562 81.20023217 1.60750604 75.95117188 1.64697266 C75.19384766 1.65019531 74.43652344 1.65341797 73.65625 1.65673828 C72.87056641 1.66511719 72.08488281 1.67349609 71.27539062 1.68212891 C70.07946289 1.68889648 70.07946289 1.68889648 68.859375 1.69580078 C66.89384806 1.7075704 64.92835977 1.72550542 62.96289062 1.74462891 C62.85976563 3.02337891 62.75664062 4.30212891 62.65039062 5.61962891 C62.47460938 7.79931641 62.47460938 7.79931641 61.96289062 9.74462891 C58.85010879 11.81981679 58.16274678 11.99608077 54.63085938 12.00341797 C53.32435425 12.01287445 53.32435425 12.01287445 51.99145508 12.02252197 C51.05390381 12.01847351 50.11635254 12.01442505 49.15039062 12.01025391 C47.70249146 12.01312408 47.70249146 12.01312408 46.2253418 12.01605225 C44.1844049 12.01741331 42.14345933 12.01372236 40.10253906 12.00537109 C36.97506297 11.99467055 33.84816131 12.00526913 30.72070312 12.01806641 C28.73893102 12.0167448 26.75715928 12.01418238 24.77539062 12.01025391 C23.83783936 12.01430237 22.90028809 12.01835083 21.93432617 12.02252197 C21.06332275 12.01621765 20.19231934 12.00991333 19.29492188 12.00341797 C18.52897705 12.00182678 17.76303223 12.0002356 16.97387695 11.99859619 C14.96289062 11.74462891 14.96289062 11.74462891 11.96289062 9.74462891 C11.26236602 7.0815659 11.18544245 4.50427154 10.96289062 1.74462891 C-3.44229846 0.40952753 -3.44229846 0.40952753 -15.03710938 7.74462891 Z " fill="#E8E8E8" transform="translate(213.037109375,134.25537109375)"/>
<path d="M0 0 C9.24 0 18.48 0 28 0 C28 0.66 28 1.32 28 2 C29.32 2.33 30.64 2.66 32 3 C32.29629261 8.03697445 32.0710449 10.94183352 29 15 C27.68945377 16.35573748 26.35251497 17.68612831 25 19 C23.43755365 20.85565608 21.89511361 22.72519669 20.3671875 24.609375 C19.91601562 25.06828125 19.46484375 25.5271875 19 26 C18.34 26 17.68 26 17 26 C17.27034634 28.43717258 17.27034634 28.43717258 18 31 C21.18762365 33.12508244 23.26512223 33.5020163 27 34 C27 37.96 27 41.92 27 46 C27.66 46.33 28.32 46.66 29 47 C19.1 47 9.2 47 -1 47 C-0.01 46.505 -0.01 46.505 1 46 C1 42.04 1 38.08 1 34 C3.97 33.01 6.94 32.02 10 31 C10.33 29.35 10.66 27.7 11 26 C10.443125 25.814375 9.88625 25.62875 9.3125 25.4375 C6.44473813 23.65483722 5.16409598 21.58151261 3.30078125 18.8125 C1.47231447 16.26472647 -0.75672009 14.18096658 -3 12 C-4.4783226 9.04335481 -4.06032783 6.25770263 -4 3 C-2.68 2.67 -1.36 2.34 0 2 C0 1.34 0 0.68 0 0 Z " fill="#ECECEC" transform="translate(236,250)"/>
<path d="M0 0 C0.66 0 1.32 0 2 0 C3.2459998 37.44920494 3.09481615 74.89367014 2.88301384 112.35700715 C2.83191974 121.41531335 2.79783746 130.47347641 2.77790338 139.53190404 C2.76122678 146.63445747 2.72939707 153.7368428 2.68605727 160.83928317 C2.66073003 165.04417642 2.64165 169.24886287 2.63868141 173.45383644 C2.6355263 177.37390345 2.61351668 181.293419 2.57712555 185.21331406 C2.56705205 186.64352333 2.56366491 188.07379867 2.56765556 189.50403786 C2.58547801 197.40541871 2.39553716 203.29936787 -2 210 C-7.19497504 214.94156162 -11.52584979 215.14404175 -18.41870117 215.11352539 C-19.70682961 215.11374443 -19.70682961 215.11374443 -21.02098083 215.1139679 C-23.8616691 215.11327079 -26.70229193 215.10548783 -29.54296875 215.09765625 C-31.51166244 215.09579135 -33.48035659 215.09436779 -35.4490509 215.09336853 C-40.63253051 215.08954901 -45.81598214 215.07972352 -50.99945068 215.06866455 C-56.2880414 215.0584383 -61.57663663 215.0538683 -66.86523438 215.04882812 C-77.24350188 215.03810077 -87.62174862 215.0210311 -98 215 C-98 214.67 -98 214.34 -98 214 C-96.40386368 213.99120064 -96.40386368 213.99120064 -94.77548218 213.98222351 C-84.74079258 213.92497693 -74.7063193 213.85220505 -64.6718502 213.76428509 C-59.51318299 213.71958347 -54.35459472 213.68032677 -49.19580078 213.65356445 C-44.21600854 213.62752956 -39.23652011 213.58712557 -34.25691605 213.53681374 C-32.35839241 213.52014633 -30.45981623 213.50863127 -28.56122971 213.50238609 C-25.89905807 213.49274369 -23.23766343 213.46468281 -20.57568359 213.43237305 C-19.40179581 213.43452568 -19.40179581 213.43452568 -18.20419312 213.4367218 C-13.42160472 213.3547876 -10.16027638 212.59839015 -6 210 C-1.23138049 204.84473567 -0.85031079 200.74806946 -0.84178162 193.97053528 C-0.83684364 193.14309443 -0.83190566 192.31565358 -0.82681805 191.46313876 C-0.81141752 188.68091293 -0.80307551 185.89871022 -0.79467773 183.11645508 C-0.78510122 181.12588802 -0.77509127 179.135323 -0.76467896 177.14476013 C-0.73759928 171.73190032 -0.7166063 166.31903175 -0.69667697 160.90614152 C-0.6748363 155.25265289 -0.64743823 149.59919131 -0.62062073 143.94572449 C-0.57066786 133.23605067 -0.52573866 122.52636186 -0.48259836 111.81665868 C-0.43324815 99.62575119 -0.37832181 87.43487084 -0.32291877 75.24398959 C-0.2090589 50.16268504 -0.10222859 25.08135446 0 0 Z " fill="#F0F0F0" transform="translate(305,150)"/>
<path d="M0 0 C0.33 0 0.66 0 1 0 C1.00238835 0.87906761 1.00477671 1.75813522 1.00723743 2.66384125 C1.06640034 24.06382194 1.14195879 45.46369013 1.23571491 66.86354828 C1.28066044 77.21240724 1.32007802 87.56123188 1.34643555 97.91015625 C1.36942564 106.93137707 1.40283507 115.95248917 1.44870156 124.97362375 C1.47262006 129.74925246 1.49135786 134.52477359 1.49761391 139.30046082 C1.50367093 143.79846303 1.52369321 148.29619003 1.55427551 152.79409027 C1.56304581 154.44196917 1.56678041 156.08988405 1.56500816 157.73778534 C1.4143065 169.22886246 1.4143065 169.22886246 5 180 C7.68143735 182.61440141 9.45689592 183.81896531 13 185 C13 185.66 13 186.32 13 187 C7.10926715 185.7377001 4.33503946 182.761472 1 178 C-1.32152329 174.3495448 -1.24906945 171.22980801 -1.24723816 166.95796204 C-1.24965257 166.24879534 -1.25206699 165.53962865 -1.25455457 164.80897206 C-1.26019009 162.43285708 -1.25152975 160.05701111 -1.24291992 157.6809082 C-1.24399281 155.97752815 -1.2459316 154.27414845 -1.24867249 152.57077026 C-1.25352173 147.94501843 -1.24586494 143.319363 -1.23571944 138.69362283 C-1.22694384 133.85875318 -1.22869627 129.0238866 -1.2290802 124.18901062 C-1.22814357 116.07252384 -1.21945832 107.95607444 -1.20581055 99.83959961 C-1.19006918 90.4430546 -1.18481299 81.04655049 -1.1855461 71.64999324 C-1.18615542 62.62219314 -1.1810598 53.59440642 -1.17275429 44.56661034 C-1.16921521 40.71852705 -1.16739016 36.8704485 -1.16686058 33.02236366 C-1.16585953 28.49735505 -1.15978255 23.97238108 -1.14969444 19.44738388 C-1.14676225 17.78203099 -1.14554552 16.11667411 -1.14612198 14.45131874 C-1.14660918 12.18787079 -1.14099174 9.92452133 -1.13371277 7.66108704 C-1.13203692 6.39144261 -1.13036108 5.12179819 -1.12863445 3.8136797 C-1 1 -1 1 0 0 Z " fill="#DBDBDB" transform="translate(194,178)"/>
<path d="M0 0 C7.92 0 15.84 0 24 0 C24 3.3 24 6.6 24 10 C16.08 10 8.16 10 0 10 C0 6.7 0 3.4 0 0 Z " fill="#080808" transform="translate(238,286)"/>
<path d="M0 0 C0.66 0.33 1.32 0.66 2 1 C2.625 4.0625 2.625 4.0625 3 7 C5.31 7.33 7.62 7.66 10 8 C9 11 9 11 6 13 C5.42251197 14.96361864 5.42251197 14.96361864 5.3125 17.125 C5.209375 18.40375 5.10625 19.6825 5 21 C4.34 20.484375 3.68 19.96875 3 19.4375 C-1.14659826 17.45058833 -3.53020565 18.16664851 -8 19 C-7.938125 17.783125 -7.87625 16.56625 -7.8125 15.3125 C-7.79177176 11.42249954 -8.62724186 9.16367751 -11 6 C-8.36 6 -5.72 6 -3 6 C-2.690625 5.195625 -2.38125 4.39125 -2.0625 3.5625 C-1 1 -1 1 0 0 Z " fill="#F5F5F5" transform="translate(237,205)"/>
<path d="M0 0 C2 1.375 2 1.375 4 3 C4 3.66 4 4.32 4 5 C6.64 5 9.28 5 12 5 C11.4740625 5.99 11.4740625 5.99 10.9375 7 C9.67146591 11.0513091 10.29385518 13.83374555 11 18 C9.1128125 17.9071875 9.1128125 17.9071875 7.1875 17.8125 C3.86656162 17.7399651 3.86656162 17.7399651 1.125 19.5 C0.75375 19.995 0.3825 20.49 0 21 C-0.66 21 -1.32 21 -2 21 C-2.061875 19.906875 -2.12375 18.81375 -2.1875 17.6875 C-2.59877264 13.8525473 -2.59877264 13.8525473 -5.5625 12.1875 C-6.366875 11.795625 -7.17125 11.40375 -8 11 C-8 10.34 -8 9.68 -8 9 C-7.05125 8.62875 -6.1025 8.2575 -5.125 7.875 C-1.74446192 6.26004095 -1.74446192 6.26004095 -0.625 2.8125 C-0.41875 1.884375 -0.2125 0.95625 0 0 Z " fill="#F4F4F4" transform="translate(258,218)"/>
<path d="M0 0 C5.28 0 10.56 0 16 0 C16 1.98 16 3.96 16 6 C10.72 6 5.44 6 0 6 C0 4.02 0 2.04 0 0 Z " fill="#DADADA" transform="translate(242,288)"/>
<path d="M0 0 C0.66 0 1.32 0 2 0 C2.103125 0.763125 2.20625 1.52625 2.3125 2.3125 C3.04364039 5.17059424 3.76951913 6.15742885 6 8 C5.21625 8.2475 4.4325 8.495 3.625 8.75 C0.67682892 10.15389099 0.0975223 11.00675737 -1 14 C-1.66 12.68 -2.32 11.36 -3 10 C-4.98 10 -6.96 10 -9 10 C-8.34 9.01 -7.68 8.02 -7 7 C-6.83300768 3.87478167 -6.83300768 3.87478167 -7 1 C-5.5459375 1.0309375 -5.5459375 1.0309375 -4.0625 1.0625 C-1.12534105 1.35618499 -1.12534105 1.35618499 0 0 Z " fill="#EFEFEF" transform="translate(264,189)"/>
<path d="M0 0 C0.99 0.33 1.98 0.66 3 1 C2.2575 1.5775 1.515 2.155 0.75 2.75 C-3.97730112 6.61779183 -6.3422279 9.0297143 -8 15 C-8.21873234 17.23053395 -8.35240054 19.47055286 -8.4140625 21.7109375 C-8.45273438 22.95488281 -8.49140625 24.19882813 -8.53125 25.48046875 C-8.5621875 26.76566406 -8.593125 28.05085938 -8.625 29.375 C-8.66367188 30.68339844 -8.70234375 31.99179688 -8.7421875 33.33984375 C-8.83619957 36.55975716 -8.92185821 39.7796688 -9 43 C-9.99 43.495 -9.99 43.495 -11 44 C-11.0995024 39.71336002 -11.1717631 35.42734669 -11.21972656 31.13989258 C-11.23973822 29.68404416 -11.26695677 28.22827506 -11.30175781 26.77270508 C-11.51865693 17.46199162 -11.60366284 11.1481821 -5.18359375 3.96875 C-4.60738281 3.4840625 -4.03117188 2.999375 -3.4375 2.5 C-2.85871094 1.9946875 -2.27992188 1.489375 -1.68359375 0.96875 C-1.12800781 0.6490625 -0.57242188 0.329375 0 0 Z " fill="#D2D2D2" transform="translate(204,135)"/>
<path d="M0 0 C0.33 0 0.66 0 1 0 C1.33 4.95 1.66 9.9 2 15 C1.01 15 0.02 15 -1 15 C-4.19703098 11.09251769 -4.28999491 7.92991345 -4 3 C-2.68 2.67 -1.36 2.34 0 2 C0 1.34 0 0.68 0 0 Z " fill="#BEBEBE" transform="translate(236,250)"/>
<path d="M0 0 C4.42485195 0.50569737 6.81561943 1.89941892 10 5 C11.93722595 8.27324384 13 10.1851331 13 14 C12.34 14 11.68 14 11 14 C10.79246094 13.48050781 10.58492188 12.96101562 10.37109375 12.42578125 C7.86450257 6.75186566 5.21275281 4.30809313 0 1 C0 0.67 0 0.34 0 0 Z " fill="#DFDFDF" transform="translate(294,136)"/>
<path d="M0 0 C0.99 0.33 1.98 0.66 3 1 C2.2575 1.5775 1.515 2.155 0.75 2.75 C-3.93684269 6.58468947 -6.37389038 9.03759805 -8 15 C-10 12 -10 12 -9.625 9.75 C-7.2459219 5.72386783 -3.95073429 2.51908206 0 0 Z " fill="#D9D9D9" transform="translate(204,135)"/>
<path d="M0 0 C0.33 0 0.66 0 1 0 C0.82016165 4.58587784 0.47782922 6.50045127 -2.75 9.875 C-5.72453205 11.81988634 -7.51297294 12.69232114 -11 13 C-11 12.34 -11 11.68 -11 11 C-10.0925 10.608125 -9.185 10.21625 -8.25 9.8125 C-3.85233823 7.35995786 -1.59097547 4.77292642 0 0 Z " fill="#D1D1D1" transform="translate(304,352)"/>
<path d="M0 0 C0.99 0 1.98 0 3 0 C2.25 6.625 2.25 6.625 0 10 C-0.66 9.67 -1.32 9.34 -2 9 C-1.34 6.03 -0.68 3.06 0 0 Z " fill="#222222" transform="translate(264,254)"/>
<path d="M0 0 C0.99 0 1.98 0 3 0 C3.33 2.97 3.66 5.94 4 9 C3.34 9 2.68 9 2 9 C0.14223235 5.86501708 -0.20140476 3.62528568 0 0 Z " fill="#121212" transform="translate(233,254)"/>
</svg>
