<?xml version="1.0" encoding="UTF-8"?>
<svg version="1.1" xmlns="http://www.w3.org/2000/svg" width="500" height="500">
<path d="M0 0 C165 0 330 0 500 0 C500 165 500 330 500 500 C335 500 170 500 0 500 C0 335 0 170 0 0 Z " fill="#000000" transform="translate(0,0)"/>
<path d="M0 0 C7.15412452 3.70438408 13.60546186 3.86526702 21.51531982 3.79000854 C22.97521589 3.79819894 24.4350992 3.80901255 25.8949585 3.82221985 C29.8200114 3.85042411 33.74421718 3.84238159 37.66931057 3.82735205 C41.78532387 3.81791461 45.90113834 3.84247526 50.01708984 3.86328125 C57.79411472 3.89750411 65.57084507 3.90157653 73.34793019 3.89455616 C82.20907169 3.88804472 91.07000843 3.91554154 99.93108892 3.94575858 C118.14311266 4.00710834 136.35495961 4.02619398 154.56707764 4.01705933 C153.61357645 5.76982623 152.65950714 7.52228409 151.7052002 9.27461243 C151.1739642 10.25054572 150.6427282 11.22647902 150.09539413 12.23198605 C148.22510838 15.64023485 146.29742819 19.01029528 144.33270264 22.36471558 C143.96860291 22.98809311 143.60450317 23.61147064 143.22937012 24.2537384 C142.47413848 25.54537946 141.71805814 26.83652466 140.96112061 28.12716675 C139.80156338 30.10603554 138.64714895 32.08784896 137.49285889 34.0697937 C136.75228167 35.33494812 136.01140754 36.59992879 135.27020264 37.86471558 C134.60665771 38.99917114 133.94311279 40.13362671 133.25946045 41.30245972 C131.56707764 44.01705933 131.56707764 44.01705933 129.56707764 46.01705933 C127.41959858 46.26759911 127.41959858 46.26759911 124.70411682 46.26861572 C123.67654266 46.27399857 122.64896851 46.27938141 121.59025574 46.28492737 C120.45830276 46.28080338 119.32634979 46.27667938 118.16009521 46.27243042 C116.97135803 46.27605087 115.78262085 46.27967133 114.55786133 46.28340149 C111.29104898 46.29211895 108.02435106 46.29230663 104.75753236 46.29005003 C101.33745896 46.29079692 97.91745907 46.30585427 94.49742126 46.32043457 C82.84382749 46.36748081 71.19024453 46.39139062 59.53656006 46.3979187 C53.10275065 46.40167493 46.66913591 46.41975278 40.23540992 46.45301306 C36.83188655 46.46988871 33.42871721 46.47906406 30.02515602 46.4700737 C26.22348353 46.4630074 22.42262803 46.48027976 18.62103271 46.50289917 C17.4992009 46.49472672 16.37736908 46.48655426 15.22154236 46.47813416 C8.73891298 46.54673026 4.89738108 47.28184257 -0.43292236 51.01705933 C-3.84387213 52.25205838 -7.19725013 52.18351811 -10.80792236 52.20455933 C-11.90878174 52.21873901 -13.00964111 52.2329187 -14.14385986 52.24752808 C-19.89509101 51.84453207 -23.47345218 49.99274143 -28.43292236 47.01705933 C-34.04292236 46.68705933 -39.65292236 46.35705933 -45.43292236 46.01705933 C-45.43292236 32.15705933 -45.43292236 18.29705933 -45.43292236 4.01705933 C-37.01792236 3.52205933 -37.01792236 3.52205933 -28.43292236 3.01705933 C-26.45292236 1.69705933 -24.47292236 0.37705933 -22.43292236 -0.98294067 C-14.78561848 -4.5398262 -7.16424246 -4.2802616 0 0 Z " fill="#A2E0DB" transform="translate(195.43292236328125,224.98294067382813)"/>
<path d="M0 0 C2.70561841 1.3528092 4.82866112 1.14027126 7.85916138 1.15821838 C9.73122757 1.17290161 9.73122757 1.17290161 11.64111328 1.18788147 C13.0317379 1.19378604 14.42236292 1.19959646 15.81298828 1.20532227 C17.27139567 1.21489823 18.72980026 1.22490814 20.1882019 1.23532104 C24.15488129 1.26240672 28.12157261 1.28339641 32.08829355 1.30332303 C36.23099359 1.32516003 40.37365666 1.35255988 44.5163269 1.37937927 C52.36441845 1.42933713 60.21253048 1.47426446 68.06066215 1.51740164 C76.99405749 1.56674761 85.92741574 1.62167551 94.86077523 1.67708123 C113.24048241 1.79094875 131.62022456 1.89777738 150 2 C149.04003128 3.76394464 148.07958108 5.52762725 147.118927 7.29119873 C146.58412783 8.27337749 146.04932865 9.25555626 145.49832344 10.26749802 C143.87328662 13.231088 142.20172677 16.16249459 140.4921875 19.078125 C139.89792969 20.09390625 139.30367187 21.1096875 138.69140625 22.15625 C138.09199219 23.1771875 137.49257813 24.198125 136.875 25.25 C135.66378759 27.31754731 134.45284301 29.38525154 133.2421875 31.453125 C132.7147998 32.35192383 132.18741211 33.25072266 131.64404297 34.17675781 C129.86746809 37.04878279 129.86746809 37.04878279 128.63011169 40.62501526 C127.18504111 43.11629252 126.48718691 43.86597483 123.67642593 44.63921547 C120.52305697 44.87826294 117.43624254 44.8846171 114.27416992 44.82299805 C112.47599571 44.82952393 112.47599571 44.82952393 110.64149475 44.83618164 C107.35552773 44.84199493 104.07144441 44.81712354 100.78573775 44.77996039 C97.34299161 44.74940413 93.90042769 44.76157759 90.45759583 44.7702179 C83.18869661 44.782038 75.92044442 44.75114073 68.65167236 44.71105957 C57.71985162 44.65126505 46.7879976 44.62683413 35.85602456 44.63930541 C32.43117879 44.64189954 29.00687935 44.63474416 25.58214378 44.60584068 C21.75927698 44.57520489 17.93698688 44.56806339 14.11401367 44.56518555 C12.42195297 44.54114403 12.42195297 44.54114403 10.69570923 44.51661682 C4.1527736 44.54033873 0.38859274 45.26342681 -5 49 C-12.5102 51.73098182 -18.72023553 51.86289576 -26.04296875 48.94921875 C-28.4422386 47.78550104 -30.71341271 46.37195237 -33 45 C-38.61 44.67 -44.22 44.34 -50 44 C-50 30.14 -50 16.28 -50 2 C-41.585 1.505 -41.585 1.505 -33 1 C-30.69 -0.32 -28.38 -1.64 -26 -3 C-17.3186407 -6.0922175 -7.79593929 -4.44207982 0 0 Z " fill="#A2E0DB" transform="translate(200,166)"/>
<path d="M0 0 C7.15412452 3.70438408 13.60546186 3.86526702 21.51531982 3.79000854 C22.97521589 3.79819894 24.4350992 3.80901255 25.8949585 3.82221985 C29.8200114 3.85042411 33.74421718 3.84238159 37.66931057 3.82735205 C41.78532387 3.81791461 45.90113834 3.84247526 50.01708984 3.86328125 C57.79411472 3.89750411 65.57084507 3.90157653 73.34793019 3.89455616 C82.20907169 3.88804472 91.07000843 3.91554154 99.93108892 3.94575858 C118.14311266 4.00710834 136.35495961 4.02619398 154.56707764 4.01705933 C153.61605934 5.76771324 152.66417492 7.51789666 151.71192932 9.2678833 C151.18194242 10.2425675 150.65195551 11.2172517 150.10590839 12.22147179 C148.17211904 15.734579 146.14954415 19.18505244 144.07879639 22.61862183 C143.69012894 23.26656708 143.30146149 23.91451233 142.90101624 24.58209229 C142.09472132 25.92514835 141.28736557 27.26756812 140.47894287 28.60934448 C139.23658432 30.67193218 137.99829776 32.73692601 136.76043701 34.80221558 C135.97095823 36.11615874 135.1812534 37.42996612 134.39129639 38.74362183 C134.02155197 39.36016632 133.65180756 39.97671082 133.27085876 40.61193848 C130.68266795 44.90146901 130.68266795 44.90146901 129.56707764 46.01705933 C127.97602395 46.11649154 126.38056358 46.14614506 124.78640747 46.14836121 C123.234487 46.15437347 123.234487 46.15437347 121.6512146 46.1605072 C119.93386612 46.15971413 119.93386612 46.15971413 118.18182373 46.15890503 C116.983479 46.16237946 115.78513428 46.16585388 114.55047607 46.16943359 C111.93730465 46.17680777 109.32418446 46.18247291 106.71100998 46.18572426 C102.57555705 46.19162707 98.44019054 46.2081624 94.30477905 46.22706604 C92.88944822 46.23340404 91.47411733 46.23972965 90.05878639 46.24604321 C88.9952972 46.25079192 88.9952972 46.25079192 87.91032338 46.25563657 C78.27981046 46.29771218 68.64933644 46.33066546 59.01873779 46.34298706 C52.5274233 46.35137765 46.03632137 46.37390918 39.54511321 46.41234273 C36.11029545 46.43207828 32.67579527 46.44451664 29.24091721 46.43950844 C25.40330328 46.43398178 21.56622355 46.45931223 17.72869873 46.48703003 C16.02956833 46.47712791 16.02956833 46.47712791 14.29611206 46.46702576 C7.7989132 46.54406075 3.89607804 47.24222062 -1.43292236 51.01705933 C-6.42281377 53.51200503 -13.99254096 52.51701532 -19.43292236 52.01705933 C-21.63604736 50.93502808 -21.63604736 50.93502808 -23.30792236 49.57955933 C-29.17706625 45.4764636 -29.17706625 45.4764636 -45.43292236 46.01705933 C-45.43292236 32.15705933 -45.43292236 18.29705933 -45.43292236 4.01705933 C-37.01792236 3.52205933 -37.01792236 3.52205933 -28.43292236 3.01705933 C-26.45292236 1.69705933 -24.47292236 0.37705933 -22.43292236 -0.98294067 C-14.78561848 -4.5398262 -7.16424246 -4.2802616 0 0 Z " fill="#A2E0DB" transform="translate(195.43292236328125,285.9829406738281)"/>
<path d="M0 0 C7.15412452 3.70438408 13.60546186 3.86526702 21.51531982 3.79000854 C22.97521589 3.79819894 24.4350992 3.80901255 25.8949585 3.82221985 C29.8200114 3.85042411 33.74421718 3.84238159 37.66931057 3.82735205 C41.78532387 3.81791461 45.90113834 3.84247526 50.01708984 3.86328125 C57.79411472 3.89750411 65.57084507 3.90157653 73.34793019 3.89455616 C82.20907169 3.88804472 91.07000843 3.91554154 99.93108892 3.94575858 C118.14311266 4.00710834 136.35495961 4.02619398 154.56707764 4.01705933 C154.56707764 4.34705933 154.56707764 4.67705933 154.56707764 5.01705933 C106.71707764 5.34705933 58.86707764 5.67705933 9.56707764 6.01705933 C11.54707764 8.98705933 13.52707764 11.95705933 15.56707764 15.01705933 C17.41072309 24.23528661 17.4448459 31.77868818 12.56707764 40.01705933 C11.57707764 41.33705933 10.58707764 42.65705933 9.56707764 44.01705933 C49.16707764 44.34705933 88.76707764 44.67705933 129.56707764 45.01705933 C129.56707764 45.34705933 129.56707764 45.67705933 129.56707764 46.01705933 C128.62589285 46.01925917 128.62589285 46.01925917 127.66569424 46.02150345 C112.38302645 46.05859004 97.10061364 46.11762906 81.81813717 46.20096207 C74.42756229 46.24073493 67.03709363 46.27313624 59.64642334 46.28805542 C53.20307723 46.30108112 46.75996498 46.32806892 40.31675059 46.37167239 C36.906527 46.39426697 33.49659162 46.40997124 30.08628654 46.40894318 C26.27475768 46.41130741 22.4641425 46.4383464 18.652771 46.47116089 C16.96531013 46.46361534 16.96531013 46.46361534 15.24375916 46.45591736 C8.75960348 46.5422815 4.89927485 47.28161757 -0.43292236 51.01705933 C-3.84387213 52.25205838 -7.19725013 52.18351811 -10.80792236 52.20455933 C-11.90878174 52.21873901 -13.00964111 52.2329187 -14.14385986 52.24752808 C-19.89509101 51.84453207 -23.47345218 49.99274143 -28.43292236 47.01705933 C-34.04292236 46.68705933 -39.65292236 46.35705933 -45.43292236 46.01705933 C-45.43292236 32.15705933 -45.43292236 18.29705933 -45.43292236 4.01705933 C-37.01792236 3.52205933 -37.01792236 3.52205933 -28.43292236 3.01705933 C-26.45292236 1.69705933 -24.47292236 0.37705933 -22.43292236 -0.98294067 C-14.78561848 -4.5398262 -7.16424246 -4.2802616 0 0 Z " fill="#59C5C7" transform="translate(195.43292236328125,224.98294067382813)"/>
<path d="M0 0 C2.70561841 1.3528092 4.82866112 1.14027126 7.85916138 1.15821838 C9.73122757 1.17290161 9.73122757 1.17290161 11.64111328 1.18788147 C13.0317379 1.19378604 14.42236292 1.19959646 15.81298828 1.20532227 C17.27139567 1.21489823 18.72980026 1.22490814 20.1882019 1.23532104 C24.15488129 1.26240672 28.12157261 1.28339641 32.08829355 1.30332303 C36.23099359 1.32516003 40.37365666 1.35255988 44.5163269 1.37937927 C52.36441845 1.42933713 60.21253048 1.47426446 68.06066215 1.51740164 C76.99405749 1.56674761 85.92741574 1.62167551 94.86077523 1.67708123 C113.24048241 1.79094875 131.62022456 1.89777738 150 2 C150 2.33 150 2.66 150 3 C102.15 3.33 54.3 3.66 5 4 C7.475 7.465 7.475 7.465 10 11 C13.01701809 17.17770371 13.10059486 24.94780985 11.3125 31.53125 C7.97257273 39.65840635 2.91107572 45.25264834 -5 49 C-12.5102 51.73098182 -18.72023553 51.86289576 -26.04296875 48.94921875 C-28.4422386 47.78550104 -30.71341271 46.37195237 -33 45 C-38.61 44.67 -44.22 44.34 -50 44 C-50 30.14 -50 16.28 -50 2 C-41.585 1.505 -41.585 1.505 -33 1 C-30.69 -0.32 -28.38 -1.64 -26 -3 C-17.3186407 -6.0922175 -7.79593929 -4.44207982 0 0 Z " fill="#58C7C9" transform="translate(200,166)"/>
<path d="M0 0 C6.23464181 4.17125108 10.3036226 9.20722818 12.30078125 16.484375 C13.83958944 24.74172964 12.6408769 31.39230042 8.73828125 38.83203125 C7.74828125 40.15203125 6.75828125 41.47203125 5.73828125 42.83203125 C45.33828125 43.16203125 84.93828125 43.49203125 125.73828125 43.83203125 C125.73828125 44.16203125 125.73828125 44.49203125 125.73828125 44.83203125 C125.105671 44.83349781 124.47306074 44.83496437 123.82128048 44.83647537 C108.41343329 44.87356117 93.00584916 44.93259912 77.59818935 45.01593399 C70.14708035 45.05570768 62.6960767 45.08810858 55.24487305 45.10302734 C48.7487902 45.11605261 42.25293934 45.14303932 35.75698715 45.18664432 C32.31881844 45.20923985 28.88093563 45.22494311 25.44268608 45.2239151 C21.60014274 45.22302823 17.75818192 45.25331765 13.91577148 45.28613281 C12.78144684 45.28110245 11.64712219 45.27607208 10.47842407 45.27088928 C3.98047539 45.35674554 0.06820879 46.05707412 -5.26171875 49.83203125 C-10.25161016 52.32697695 -17.82133735 51.33198725 -23.26171875 50.83203125 C-25.46484375 49.75 -25.46484375 49.75 -27.13671875 48.39453125 C-33.00586263 44.29143552 -33.00586263 44.29143552 -49.26171875 44.83203125 C-49.26171875 30.97203125 -49.26171875 17.11203125 -49.26171875 2.83203125 C-40.84671875 2.33703125 -40.84671875 2.33703125 -32.26171875 1.83203125 C-30.28171875 0.51203125 -28.30171875 -0.80796875 -26.26171875 -2.16796875 C-17.16160869 -6.40057808 -8.4918407 -4.70300386 0 0 Z " fill="#55C4C6" transform="translate(199.26171875,287.16796875)"/>
<path d="M0 0 C5.28 0 10.56 0 16 0 C13.31445312 4.15039062 13.31445312 4.15039062 10.62890625 8.30078125 C7.08963244 14.16562107 7.1994755 20.33381415 8 27 C9.60850092 31.25722999 11.67160291 35.09783867 14 39 C14.33 39.66 14.66 40.32 15 41 C10.05 41 5.1 41 0 41 C0 27.47 0 13.94 0 0 Z " fill="#A1E0DB" transform="translate(150,290)"/>
<path d="M0 0 C4.95 0 9.9 0 15 0 C13.47005208 2.47395833 11.94010417 4.94791667 10.41015625 7.421875 C7.22847994 13.23879014 7.40354836 19.50439648 8 26 C9.67693847 31.72591945 12.67908452 36.01862678 16 41 C10.72 41 5.44 41 0 41 C0 27.47 0 13.94 0 0 Z " fill="#A2E0DB" transform="translate(150,169)"/>
<path d="M0 0 C4.95 0 9.9 0 15 0 C13.47005208 2.50651042 11.94010417 5.01302083 10.41015625 7.51953125 C7.09968668 13.3426564 7.43970236 19.47328964 8 26 C9.52297127 31.17207075 12.23200107 35.38666846 15 40 C10.05 40 5.1 40 0 40 C0 26.8 0 13.6 0 0 Z " fill="#A2E0DB" transform="translate(150,230)"/>
</svg>
