<?xml version="1.0" encoding="UTF-8"?>
<svg version="1.1" xmlns="http://www.w3.org/2000/svg" width="500" height="500">
<path d="M0 0 C165 0 330 0 500 0 C500 165 500 330 500 500 C335 500 170 500 0 500 C0 335 0 170 0 0 Z " fill="#000000" transform="translate(0,0)"/>
<path d="M0 0 C2.13497128 -0.00217755 4.26941726 -0.02035072 6.40429688 -0.03930664 C22.325189 -0.10542032 36.34104912 1.7671148 48.40820312 12.86889648 C51.82940002 16.83909171 52.65360621 20.49375069 52.67895508 25.65893555 C52.68848709 26.73065002 52.6980191 27.8023645 52.70783997 28.90655518 C52.70647285 30.63008209 52.70647285 30.63008209 52.70507812 32.38842773 C52.70936325 33.58079041 52.71364838 34.77315308 52.71806335 36.00164795 C52.72380236 38.52330898 52.72431009 41.04498656 52.7199707 43.56665039 C52.71681987 47.4072734 52.7402449 51.24711917 52.765625 55.08764648 C52.76789906 57.5420726 52.76860099 59.99650078 52.76757812 62.45092773 C52.77678787 63.59184875 52.78599762 64.73276978 52.79548645 65.90826416 C52.74336366 74.98192711 51.58001211 82.83793175 45.21289062 89.68139648 C39.01971418 94.83123003 31.39892362 96.29266736 23.54760742 96.34301758 C22.39258224 96.35327972 21.23755707 96.36354187 20.04753113 96.37411499 C18.80788101 96.38141632 17.5682309 96.38871765 16.29101562 96.39624023 C14.3296182 96.41712393 12.36822078 96.43802515 10.4068346 96.45993996 C5.58484955 96.51291874 0.7628614 96.55726114 -4.05932617 96.58666992 C-6.76830653 96.60362941 -9.47700622 96.62838012 -12.18583679 96.66152954 C-14.73114154 96.69235588 -17.27661522 96.71188513 -19.82209778 96.71859741 C-28.30481135 96.83927651 -35.58731331 97.60557331 -42.21289062 103.52514648 C-47.39417585 109.74561603 -49.67781444 117.10821442 -49.91210938 125.04077148 C-49.93289047 125.70240799 -49.95367157 126.36404449 -49.9750824 127.04573059 C-50.0403504 129.15465125 -50.09935657 131.26369408 -50.15820312 133.37280273 C-50.20141002 134.80445588 -50.24502501 136.23609677 -50.2890625 137.66772461 C-50.39600818 141.17345428 -50.49733953 144.67932059 -50.59570312 148.18530273 C-54.26194124 148.33189813 -57.92741513 148.41980147 -61.59570312 148.49780273 C-63.14064453 148.56064453 -63.14064453 148.56064453 -64.71679688 148.62475586 C-73.10743382 148.75836473 -77.53894986 146.70942472 -83.76757812 141.29858398 C-95.90554986 127.44807664 -96.68079725 107.39916103 -95.80712891 89.80053711 C-94.84392664 77.88619219 -91.20661617 66.15534641 -82.28320312 57.81030273 C-72.81193744 50.77715055 -63.91677311 50.64210112 -52.52929688 50.79467773 C-50.88306876 50.8021501 -49.23683167 50.80783832 -47.59059143 50.81182861 C-43.28484987 50.82700674 -38.97965916 50.8662195 -34.6741333 50.91064453 C-30.26981047 50.95176742 -25.86539751 50.96987575 -21.4609375 50.98999023 C-12.83894162 51.03272271 -4.21739114 51.10087726 4.40429688 51.18530273 C4.40429688 48.87530273 4.40429688 46.56530273 4.40429688 44.18530273 C-11.43570313 44.18530273 -27.27570313 44.18530273 -43.59570312 44.18530273 C-43.67820313 39.68905273 -43.76070312 35.19280273 -43.84570312 30.56030273 C-43.88211914 29.15312988 -43.91853516 27.74595703 -43.95605469 26.29614258 C-44.05873074 14.76495999 -44.05873074 14.76495999 -39.59570312 10.18530273 C-28.52761144 0.30153992 -14.07475097 -0.00160378 0 0 Z " fill="#3672A3" transform="translate(245.595703125,150.814697265625)"/>
<path d="M0 0 C3.35399849 -0.0878954 6.7076964 -0.14068879 10.0625 -0.1875 C11.00544922 -0.21263672 11.94839844 -0.23777344 12.91992188 -0.26367188 C21.83088133 -0.35681779 27.5351498 1.81888608 34.14453125 7.9296875 C43.02977208 17.84374569 44.51934443 32.25534483 45 45 C45.07927734 46.83111328 45.07927734 46.83111328 45.16015625 48.69921875 C45.36192627 57.23496772 44.4624407 64.82384408 42 73 C41.73316406 73.89589844 41.46632813 74.79179687 41.19140625 75.71484375 C38.40823213 83.74275488 33.39343153 90.5356829 25.75 94.5 C20.72128946 96.74421793 16.36180373 97.12303759 10.84472656 97.11352539 C10.13213181 97.11367142 9.41953705 97.11381744 8.68534851 97.1139679 C6.33707605 97.11327291 3.98888355 97.10549994 1.640625 97.09765625 C0.00966434 97.0957906 -1.62129688 97.09436739 -3.2522583 97.09336853 C-7.53974969 97.08955494 -11.82720708 97.07973454 -16.11468506 97.06866455 C-20.49181661 97.05842553 -24.86895367 97.05386557 -29.24609375 97.04882812 C-37.83074475 97.03811123 -46.41536814 97.02104872 -55 97 C-55 99.31 -55 101.62 -55 104 C-39.16 104 -23.32 104 -7 104 C-6.938125 108.351875 -6.87625 112.70375 -6.8125 117.1875 C-6.77153198 119.23360474 -6.77153198 119.23360474 -6.72973633 121.32104492 C-6.72224365 122.40490479 -6.71475098 123.48876465 -6.70703125 124.60546875 C-6.6913208 125.71043701 -6.67561035 126.81540527 -6.65942383 127.95385742 C-7.20880351 132.86755655 -9.60428248 136.0049825 -13.3125 139.125 C-14.14201172 139.84042969 -14.14201172 139.84042969 -14.98828125 140.5703125 C-25.98935619 148.38855217 -40.92208642 148.52432808 -53.96435547 148.44604492 C-56.13213471 148.43747178 -58.2973175 148.46656625 -60.46484375 148.49804688 C-73.51567107 148.56370224 -86.49298112 146.39765524 -97 138 C-101.39853936 133.21455209 -103.1135554 128.90446601 -103.17700195 122.4621582 C-103.18983719 121.32700272 -103.20267242 120.19184723 -103.21589661 119.02229309 C-103.22328354 117.79419418 -103.23067047 116.56609528 -103.23828125 115.30078125 C-103.246353 114.03662888 -103.25442474 112.7724765 -103.26274109 111.47001648 C-103.27658355 108.79092749 -103.28759881 106.11196159 -103.29516602 103.43286133 C-103.30619983 100.01774388 -103.34056807 96.60328351 -103.38033772 93.18839741 C-103.41293661 89.91342452 -103.41729466 86.63839163 -103.42578125 83.36328125 C-103.44328934 82.1453035 -103.46079742 80.92732574 -103.47883606 79.67243958 C-103.45867754 71.74209291 -102.61283471 66.19847686 -97.2890625 60.01171875 C-90.61875653 54.70365837 -84.84911777 51.89732863 -76.27270508 51.84228516 C-75.12083206 51.83202301 -73.96895905 51.82176086 -72.78218079 51.81118774 C-71.54050644 51.80388641 -70.29883209 51.79658508 -69.01953125 51.7890625 C-67.05946071 51.76817737 -65.09939019 51.74727464 -63.13933086 51.72536278 C-58.31520598 51.67236243 -53.49107509 51.62810326 -48.66674805 51.59863281 C-45.95954847 51.58165504 -43.2526283 51.55688291 -40.545578 51.52377319 C-38.00135116 51.49298281 -35.45695616 51.47342579 -32.91255188 51.46670532 C-23.97910778 51.33995702 -15.84446845 50.21791888 -8.5703125 44.65234375 C-2.45097681 38.21334127 -0.95647656 29.92405248 -0.68359375 21.38671875 C-0.64169922 20.13955078 -0.59980469 18.89238281 -0.55664062 17.60742188 C-0.51732422 16.31384766 -0.47800781 15.02027344 -0.4375 13.6875 C-0.37272461 11.71813477 -0.37272461 11.71813477 -0.30664062 9.70898438 C-0.20072773 6.47275712 -0.09865115 3.23645542 0 0 Z " fill="#FDD142" transform="translate(305,201)"/>
<path d="M0 0 C4.45850936 0.79616239 5.90783917 1.93313458 8.5 5.625 C9.125 9.125 9.125 9.125 8.5 12.625 C5.90783917 16.31686542 4.45850936 17.45383761 0 18.25 C-4.45850936 17.45383761 -5.90783917 16.31686542 -8.5 12.625 C-9.125 9.125 -9.125 9.125 -8.5 5.625 C-5.90783917 1.93313458 -4.45850936 0.79616239 0 0 Z " fill="#070501" transform="translate(277.5,316.375)"/>
<path d="M0 0 C4.45850936 0.79616239 5.90783917 1.93313458 8.5 5.625 C9.125 9.125 9.125 9.125 8.5 12.625 C5.90783917 16.31686542 4.45850936 17.45383761 0 18.25 C-4.45850936 17.45383761 -5.90783917 16.31686542 -8.5 12.625 C-9.125 9.125 -9.125 9.125 -8.5 5.625 C-5.90783917 1.93313458 -4.45850936 0.79616239 0 0 Z " fill="#010304" transform="translate(222.5,165.375)"/>
</svg>
