<?xml version="1.0" encoding="UTF-8"?>
<svg version="1.1" xmlns="http://www.w3.org/2000/svg" width="500" height="500">
<path d="M0 0 C165 0 330 0 500 0 C500 165 500 330 500 500 C335 500 170 500 0 500 C0 335 0 170 0 0 Z " fill="#000000" transform="translate(0,0)"/>
<path d="M0 0 C1.11955078 -0.01611328 2.23910156 -0.03222656 3.39257812 -0.04882812 C10.12988902 -0.05282653 14.66374558 0.39605811 20.18554688 4.52661133 C23.32046512 8.59255583 22.02703437 15.27707496 22 20.1875 C22.0299707 22.10755859 22.0299707 22.10755859 22.06054688 24.06640625 C22.05990234 25.30003906 22.05925781 26.53367188 22.05859375 27.8046875 C22.06137329 29.49634033 22.06137329 29.49634033 22.06420898 31.22216797 C21.46261265 34.92776721 20.10325268 36.61139479 17.5625 39.3125 C18.0678125 39.73402344 18.573125 40.15554687 19.09375 40.58984375 C20.06828125 41.41162109 20.06828125 41.41162109 21.0625 42.25 C22.03703125 43.06791016 22.03703125 43.06791016 23.03125 43.90234375 C23.5365625 44.36769531 24.041875 44.83304687 24.5625 45.3125 C24.5625 45.6425 24.5625 45.9725 24.5625 46.3125 C23.02339264 46.44937714 21.48062705 46.54534005 19.9375 46.625 C19.07898438 46.68300781 18.22046875 46.74101562 17.3359375 46.80078125 C14.5625 46.3125 14.5625 46.3125 11.9453125 43.828125 C7.67768034 39.95264249 2.53494411 40.68427532 -2.9375 40.75 C-15.38056307 40.8522502 -15.38056307 40.8522502 -20.4375 36.3125 C-23.67100295 31.46224558 -22.84725848 26.13992261 -22.875 20.4375 C-22.90787109 19.25285156 -22.94074219 18.06820312 -22.97460938 16.84765625 C-23.02844742 8.16504848 -23.02844742 8.16504848 -20.22265625 4.1171875 C-13.56869218 -0.19435724 -7.72812937 -0.02216905 0 0 Z " fill="#C6852A" transform="translate(333.4375,211.6875)"/>
<path d="M0 0 C3.81066791 3.26544015 5.94697965 6.36218801 7.9375 10.9375 C8.43507812 12.06542969 8.93265625 13.19335938 9.4453125 14.35546875 C9.95835937 15.55816406 10.47140625 16.76085937 11 18 C11.83591922 19.95390008 12.67196905 21.90774423 13.50805664 23.86157227 C14.27868971 25.67063046 15.03995439 27.48367083 15.80078125 29.296875 C16.74707436 31.86694266 16.74707436 31.86694266 18 33 C18.51385254 31.81241089 18.51385254 31.81241089 19.03808594 30.60083008 C20.32171446 27.64419416 21.61217366 24.69066139 22.90722656 21.73901367 C23.46463942 20.46481181 24.01937323 19.18943428 24.57128906 17.9128418 C25.36846227 16.0702781 26.17632549 14.23235118 26.984375 12.39453125 C27.70705566 10.73707886 27.70705566 10.73707886 28.44433594 9.04614258 C30.31891347 5.37553619 32.22336289 1.88831855 36 0 C38.05859375 0.05078125 38.05859375 0.05078125 40.4375 0.3125 C41.21996094 0.39113281 42.00242188 0.46976563 42.80859375 0.55078125 C45 1 45 1 48 3 C48.26660183 5.90834885 48.34779124 8.60138268 48.29296875 11.5078125 C48.28872391 12.34843231 48.28447906 13.18905212 48.28010559 14.05514526 C48.26328532 16.74541993 48.22562781 19.43495099 48.1875 22.125 C48.17245745 23.94660378 48.1587683 25.76821928 48.14648438 27.58984375 C48.11337094 32.06018324 48.06156637 36.52996546 48 41 C45.03 41 42.06 41 39 41 C38.67 31.1 38.34 21.2 38 11 C34.26085478 19.69911171 34.26085478 19.69911171 30.55200195 28.41113281 C29.83983521 30.04066895 29.83983521 30.04066895 29.11328125 31.703125 C28.63673096 32.81333008 28.16018066 33.92353516 27.66918945 35.06738281 C25.82691032 38.30410315 24.09825913 39.964634 21 42 C17.2998989 42.61668352 15.67719274 42.43985852 12.52075195 40.38964844 C9.53336393 37.55763353 8.30462453 35.03489285 6.66796875 31.265625 C6.15258545 30.09805664 5.63720215 28.93048828 5.10620117 27.72753906 C4.47302979 26.24995117 3.8398584 24.77236328 3.1875 23.25 C1.145625 18.5475 -0.89625 13.845 -3 9 C-3.33 19.56 -3.66 30.12 -4 41 C-6.97 41 -9.94 41 -13 41 C-13.09897181 35.94634708 -13.17151603 30.89325976 -13.21972656 25.83886719 C-13.23982628 24.12001721 -13.26711089 22.40123548 -13.30175781 20.68261719 C-13.35035034 18.21011511 -13.37298435 15.7385179 -13.390625 13.265625 C-13.41127014 12.49881409 -13.43191528 11.73200317 -13.45318604 10.94195557 C-13.45466543 7.41418073 -13.30692374 5.4100475 -11.16308594 2.54589844 C-7.52659736 -0.05300062 -4.38112783 -0.52573534 0 0 Z " fill="#006285" transform="translate(163,211)"/>
<path d="M0 0 C2.97 0 5.94 0 9 0 C9.33 7.26 9.66 14.52 10 22 C17.92 22.33 25.84 22.66 34 23 C34 15.41 34 7.82 34 0 C36.64 0 39.28 0 42 0 C42.12391876 4.75047352 42.21448561 9.49999961 42.2746582 14.25170898 C42.29974959 15.86678461 42.33383126 17.48174726 42.37719727 19.09643555 C42.43809286 21.42264706 42.46626124 23.74735359 42.48828125 26.07421875 C42.51408768 26.79212082 42.5398941 27.51002289 42.56648254 28.24967957 C42.56865914 32.17071478 42.1346032 33.83151107 39.65698242 36.93286133 C35.37297767 40.26582726 31.68495181 40.13562817 26.48828125 40.09765625 C25.76005661 40.0962413 25.03183197 40.09482635 24.28153992 40.09336853 C21.95848461 40.08777659 19.63552612 40.07522562 17.3125 40.0625 C15.73632952 40.05748396 14.16015752 40.05292123 12.58398438 40.04882812 C8.72261902 40.0378098 4.86132592 40.02055074 1 40 C1 38.02 1 36.04 1 34 C16.345 33.505 16.345 33.505 32 33 C32.33 31.35 32.66 29.7 33 28 C32.36497559 28.01047363 31.72995117 28.02094727 31.07568359 28.03173828 C28.1754966 28.07352467 25.27537318 28.09939771 22.375 28.125 C21.37597656 28.14175781 20.37695312 28.15851563 19.34765625 28.17578125 C12.40022783 28.22179071 6.35133097 27.95493608 1 23 C0.03911617 20.11734851 -0.11670941 18.32337729 -0.09765625 15.33203125 C-0.09443359 14.43935547 -0.09121094 13.54667969 -0.08789062 12.62695312 C-0.07951172 11.69818359 -0.07113281 10.76941406 -0.0625 9.8125 C-0.05798828 8.87212891 -0.05347656 7.93175781 -0.04882812 6.96289062 C-0.03704645 4.64189992 -0.01911114 2.32094193 0 0 Z " fill="#006082" transform="translate(218,224)"/>
<path d="M0 0 C1.0236264 0.00424484 1.0236264 0.00424484 2.06793213 0.00857544 C4.23817807 0.01973152 6.40800471 0.04482693 8.578125 0.0703125 C10.05337944 0.08034824 11.52864037 0.08947306 13.00390625 0.09765625 C16.61211442 0.11965563 20.22007875 0.15415367 23.828125 0.1953125 C23.828125 2.1753125 23.828125 4.1553125 23.828125 6.1953125 C14.258125 6.5253125 4.688125 6.8553125 -5.171875 7.1953125 C-5.171875 9.8353125 -5.171875 12.4753125 -5.171875 15.1953125 C-2.87583728 17.49135022 3.58529048 16.55062095 6.86328125 16.625 C13.00807537 16.86715937 17.6167257 17.91370232 22.73046875 21.546875 C25.18531857 25.23351779 24.59912025 30.00990973 23.828125 34.1953125 C21.54462744 37.49848507 18.61242013 38.93388079 14.828125 40.1953125 C12.5442733 40.27909878 10.258024 40.30261165 7.97265625 40.29296875 C6.98020149 40.29084633 6.98020149 40.29084633 5.96769714 40.28868103 C3.85862672 40.28309246 1.74966323 40.27054215 -0.359375 40.2578125 C-1.79101409 40.25279602 -3.22265485 40.24823337 -4.65429688 40.24414062 C-8.16019088 40.2331268 -11.6660225 40.21587005 -15.171875 40.1953125 C-15.171875 38.2153125 -15.171875 36.2353125 -15.171875 34.1953125 C-14.32890869 34.17025635 -13.48594238 34.1452002 -12.61743164 34.11938477 C-9.49945826 34.02443095 -6.38165997 33.92518802 -3.26391602 33.82299805 C-1.91273353 33.77960027 -0.56149447 33.7379288 0.78979492 33.69799805 C2.72849201 33.64041298 4.66698776 33.57616952 6.60546875 33.51171875 C7.77327881 33.47506104 8.94108887 33.43840332 10.14428711 33.40063477 C12.74592295 33.49455062 12.74592295 33.49455062 13.828125 32.1953125 C13.86905437 29.86233817 13.87054223 27.52826025 13.828125 25.1953125 C9.31641591 22.14686041 3.78927672 22.8388192 -1.44140625 22.8046875 C-6.79315392 22.64440221 -9.92059879 21.75359071 -14.171875 18.1953125 C-16.01884819 14.50136611 -15.64820533 10.22780763 -15.171875 6.1953125 C-11.24663253 0.58782326 -6.53068375 -0.05353019 0 0 Z " fill="#C6862A" transform="translate(282.171875,211.8046875)"/>
<path d="M0 0 C0.91523438 -0.01611328 1.83046875 -0.03222656 2.7734375 -0.04882812 C3.65257812 -0.04947266 4.53171875 -0.05011719 5.4375 -0.05078125 C6.24058594 -0.05376221 7.04367187 -0.05674316 7.87109375 -0.05981445 C10 0.3125 10 0.3125 11.7668457 1.50244141 C13.45272281 3.97701929 13.3423318 5.65848161 13.29296875 8.63671875 C13.28330078 9.66474609 13.27363281 10.69277344 13.26367188 11.75195312 C13.23853516 12.82380859 13.21339844 13.89566406 13.1875 15 C13.16719727 16.62518555 13.16719727 16.62518555 13.14648438 18.28320312 C13.11110643 20.96013405 13.06174189 23.63606838 13 26.3125 C11.10546875 26.93359375 11.10546875 26.93359375 9 27.3125 C8.443125 26.673125 7.88625 26.03375 7.3125 25.375 C4.15497955 22.55883311 1.91539568 22.98728858 -2.171875 23.171875 C-2.77515625 23.21828125 -3.3784375 23.2646875 -4 23.3125 C-2.68 24.9625 -1.36 26.6125 0 28.3125 C-1.79133978 28.36641993 -3.58313899 28.40525571 -5.375 28.4375 C-6.37273437 28.46070313 -7.37046875 28.48390625 -8.3984375 28.5078125 C-11 28.3125 -11 28.3125 -13 26.3125 C-13.45594946 22.33094664 -13.32403413 18.31714871 -13.3125 14.3125 C-13.32861328 13.19359375 -13.34472656 12.0746875 -13.36132812 10.921875 C-13.36197266 9.85453125 -13.36261719 8.7871875 -13.36328125 7.6875 C-13.36626221 6.70523438 -13.36924316 5.72296875 -13.37231445 4.7109375 C-13.24945068 3.91945312 -13.12658691 3.12796875 -13 2.3125 C-8.72800275 -0.53549817 -5.02201715 -0.01768316 0 0 Z " fill="#030200" transform="translate(334,217.6875)"/>
<path d="M0 0 C2.97 0 5.94 0 9 0 C9.02505615 0.96413818 9.0501123 1.92827637 9.07592773 2.92163086 C9.16985306 6.48687842 9.27010939 10.05192433 9.37231445 13.61694336 C9.41571985 15.16214289 9.45739071 16.70739214 9.49731445 18.25268555 C9.55488199 20.46939096 9.61861424 22.6858448 9.68359375 24.90234375 C9.70030624 25.5971434 9.71701874 26.29194305 9.73423767 27.00779724 C9.56502856 30.28762029 9.56502856 30.28762029 11 33 C13.0708472 33.1584265 15.14678029 33.25124422 17.22265625 33.31640625 C19.11274414 33.37924805 19.11274414 33.37924805 21.04101562 33.44335938 C22.38150736 33.48317596 23.7220022 33.52288814 25.0625 33.5625 C26.40691523 33.60568042 27.7513166 33.64929456 29.09570312 33.69335938 C32.3970234 33.79985358 35.69842236 33.9018646 39 34 C39 35.98 39 37.96 39 40 C34.85577739 40.09953791 30.71220425 40.17177901 26.56713867 40.21972656 C25.15978866 40.23973246 23.75252062 40.26694662 22.34545898 40.30175781 C7.70123852 40.65475568 7.70123852 40.65475568 2 36 C-0.42869909 32.35695136 -0.25675675 29.69277661 -0.1953125 25.48828125 C-0.1924826 24.76005661 -0.18965271 24.03183197 -0.18673706 23.28153992 C-0.17555257 20.95835863 -0.15045166 18.63556453 -0.125 16.3125 C-0.11496794 14.7363337 -0.10584248 13.16016135 -0.09765625 11.58398438 C-0.07561896 7.72250733 -0.04110141 3.86131929 0 0 Z " fill="#C28329" transform="translate(360,212)"/>
<path d="M0 0 C8.92232366 1.32525015 17.187839 4.98775717 23 12 C24.74317417 14.96681407 26.38593123 17.95575828 27.98510742 21.00073242 C30.87892968 26.29832298 33.71989375 28.31363015 39 31 C39.495 32.485 39.495 32.485 40 34 C38.35 34 36.7 34 35 34 C36.65 35.98 38.3 37.96 40 40 C34.25 38.25 34.25 38.25 32 36 C32 35.01 32 34.02 32 33 C33.32 32.34 34.64 31.68 36 31 C34.2675 30.4740625 34.2675 30.4740625 32.5 29.9375 C27.84415682 27.68335057 26.1649635 24.10022656 24 19.625 C21.01974716 13.51398388 18.36412887 9.05427068 12 6 C8.40932038 4.71157463 8.40932038 4.71157463 5 4 C3.32367583 3.35800351 1.65249487 2.70105843 0 2 C0.33773437 2.51949219 0.67546875 3.03898438 1.0234375 3.57421875 C1.46945313 4.27160156 1.91546875 4.96898437 2.375 5.6875 C2.81585938 6.37199219 3.25671875 7.05648437 3.7109375 7.76171875 C6.49801487 12.60109855 7.23828965 16.20466256 7.125 21.8125 C7.10695313 22.97394531 7.08890625 24.13539063 7.0703125 25.33203125 C7.04710938 26.21246094 7.02390625 27.09289062 7 28 C7.66 28 8.32 28 9 28 C9.33 26.35 9.66 24.7 10 23 C12.50037734 25.17424117 13.43628586 26.73045798 14 30 C13.01 29.67 12.02 29.34 11 29 C8.85744207 29.38932856 8.85744207 29.38932856 7 30 C4.7246216 26.58693239 4.88886347 25.85358281 5.1875 21.9375 C5.31857725 16.43953739 3.94747312 12.98458383 1.19140625 8.2890625 C-0.08824622 5.83045152 -0.66512061 3.7450677 -1 1 C-0.67 0.67 -0.34 0.34 0 0 Z " fill="#005370" transform="translate(103,212)"/>
<path d="M0 0 C0.99 0.495 0.99 0.495 2 1 C2 5.29 2 9.58 2 14 C2.66 14 3.32 14 4 14 C4.33 12.35 4.66 10.7 5 9 C7.50037734 11.17424117 8.43628586 12.73045798 9 16 C8.01 15.67 7.02 15.34 6 15 C3.85744207 15.38932856 3.85744207 15.38932856 2 16 C-0.42130331 12.36804504 -0.21022785 10.61650652 -0.125 6.3125 C-0.09792969 4.54326172 -0.09792969 4.54326172 -0.0703125 2.73828125 C-0.04710938 1.83464844 -0.02390625 0.93101562 0 0 Z " fill="#005776" transform="translate(108,226)"/>
<path d="M0 0 C2.78211944 0.37596209 4.5879284 0.67318459 6.8125 2.4375 C8 4 8 4 8 6 C6.35 6 4.7 6 3 6 C4.65 7.98 6.3 9.96 8 12 C2.25 10.25 2.25 10.25 0 8 C0 7.01 0 6.02 0 5 C1.32 4.34 2.64 3.68 4 3 C2.68 2.01 1.36 1.02 0 0 Z " fill="#004E6A" transform="translate(135,240)"/>
</svg>
