<?xml version="1.0" encoding="UTF-8"?>
<svg version="1.1" xmlns="http://www.w3.org/2000/svg" width="500" height="500">
<path d="M0 0 C165 0 330 0 500 0 C500 165 500 330 500 500 C335 500 170 500 0 500 C0 335 0 170 0 0 Z " fill="#000000" transform="translate(0,0)"/>
<path d="M0 0 C1.97016301 0.96634779 3.90292516 2.0106307 5.8046875 3.10546875 C7.50081177 4.07697876 7.50081177 4.07697876 9.23120117 5.06811523 C10.44601678 5.77420534 11.66061183 6.48067501 12.875 7.1875 C14.12134508 7.90660109 15.3678474 8.6254297 16.61450195 9.34399414 C49.15938555 28.15938555 49.15938555 28.15938555 52 31 C52.09409479 33.02494231 52.11743122 35.0531987 52.11352539 37.08032227 C52.11341209 39.03223228 52.11341209 39.03223228 52.11329651 41.02357483 C52.10818909 42.45451902 52.10297308 43.88546282 52.09765625 45.31640625 C52.09579203 46.7722926 52.09436815 48.22817957 52.09336853 49.68406677 C52.08954365 53.52279379 52.07971364 57.36148319 52.06866455 61.20019531 C52.05844978 65.11457816 52.05387077 69.02896706 52.04882812 72.94335938 C52.03809134 80.62892343 52.02101529 88.31445645 52 96 C50.00970526 97.09631095 48.01938416 98.19257402 46.02905273 99.28881836 C45.43603835 99.61545188 44.84302397 99.9420854 44.23203945 100.27861691 C41.08151377 102.01374703 37.93025842 103.74753024 34.77758789 105.47875977 C28.37757437 108.99820041 22.00383092 112.5538404 15.68359375 116.21484375 C14.55493896 116.86372559 13.42628418 117.51260742 12.26342773 118.18115234 C10.12194119 119.41570724 7.98704662 120.66178284 5.85961914 121.92041016 C4.89531982 122.47390137 3.93102051 123.02739258 2.9375 123.59765625 C2.10089844 124.08758057 1.26429688 124.57750488 0.40234375 125.08227539 C-2.60704413 126.23189826 -3.95822139 126.00246443 -7 125 C-9.58935547 123.71582031 -9.58935547 123.71582031 -12.3671875 122.078125 C-13.40738037 121.47057373 -14.44757324 120.86302246 -15.51928711 120.23706055 C-16.62667236 119.58133057 -17.73405762 118.92560059 -18.875 118.25 C-20.61395719 117.23071567 -22.35442046 116.21403828 -24.09501648 115.19755554 C-25.28420533 114.50295532 -26.47293278 113.80756457 -27.66120911 113.11140442 C-34.68439292 109.00115224 -41.78030152 105.02061455 -48.87646484 101.03808594 C-49.77187988 100.53438477 -50.66729492 100.03068359 -51.58984375 99.51171875 C-52.37222412 99.07303467 -53.15460449 98.63435059 -53.96069336 98.18237305 C-55.67938968 97.1858872 -57.34698156 96.1020123 -59 95 C-59.47515869 92.35913086 -59.47515869 92.35913086 -59.61035156 88.96484375 C-59.66499573 87.69592285 -59.71963989 86.42700195 -59.77593994 85.11962891 C-59.81705916 83.72566821 -59.85521188 82.33161733 -59.890625 80.9375 C-59.90909233 80.2346991 -59.92755966 79.53189819 -59.94658661 78.80780029 C-60.03855819 75.08116897 -60.10678579 71.35481116 -60.16015625 67.62744141 C-60.20898128 64.55333021 -60.30606526 61.48675834 -60.44726562 58.41552734 C-61.55056207 33.85300859 -61.55056207 33.85300859 -57.49142456 27.72106934 C-53.63858477 24.14140275 -49.1973231 22.39098989 -44.2510376 20.78491211 C-40.84032413 19.59563375 -37.87706109 17.79422263 -34.78515625 15.953125 C-32.54552026 14.7164845 -30.30465442 13.48206845 -28.0625 12.25 C-25.80244983 11.0069078 -23.54331951 9.76214162 -21.28515625 8.515625 C-20.22184082 7.93103516 -19.15852539 7.34644531 -18.06298828 6.74414062 C-14.34940775 4.62953682 -10.76842789 2.33523228 -7.21655273 -0.04003906 C-4.29853013 -1.30379772 -3.00307873 -0.98796321 0 0 Z " fill="#BB554D" transform="translate(253,181)"/>
<path d="M0 0 C4.40484342 2.20514411 8.59403686 4.68426564 12.78515625 7.26953125 C14.46433072 8.29511129 16.14402465 9.31984127 17.82421875 10.34375 C18.67435547 10.8895874 19.52449219 11.4354248 20.40039062 11.99780273 C23.16071482 13.68718509 23.16071482 13.68718509 26.40429688 14.76196289 C30.18285329 16.30837837 32.40024581 17.54580179 35.16015625 20.58203125 C37.75861764 27.57766201 37.48191327 35.28718992 37.41015625 42.64453125 C37.41420471 43.67225647 37.41825317 44.69998169 37.42242432 45.7588501 C37.31131603 63.34476539 37.31131603 63.34476539 32.97753906 68.94384766 C27.47746669 73.94652046 21.12276354 76.37417698 14.09960938 78.55761719 C10.71063371 79.7386921 8.25440571 81.39351896 5.38061523 83.48339844 C2.6279475 85.37888502 0.47411317 86.14728892 -2.83984375 86.58203125 C-8.41884887 85.10527548 -13.1840974 81.78740952 -17.81469727 78.44946289 C-20.41725703 76.84289525 -22.80392985 75.72090148 -25.61303711 74.55639648 C-38.49027326 68.86326844 -38.49027326 68.86326844 -40.83450317 63.16369629 C-42.2143416 56.26442572 -41.57388287 49.35625645 -41.02734375 42.39453125 C-40.93191311 40.27707271 -40.84524217 38.15920022 -40.76757812 36.04101562 C-40.55928163 30.87771306 -40.23251558 25.73445794 -39.83984375 20.58203125 C-38.92331276 20.05716629 -38.92331276 20.05716629 -37.98826599 19.521698 C-36.38675175 18.60453856 -34.78528219 17.68730109 -33.18383789 16.77001953 C-31.27837535 15.68095012 -29.37129164 14.59471253 -27.46264648 13.51123047 C-22.97387554 10.96140055 -18.50307088 8.39622809 -14.09375 5.7109375 C-13.38089844 5.28546631 -12.66804688 4.85999512 -11.93359375 4.42163086 C-10.60991986 3.63013115 -9.29543936 2.82298426 -7.9921875 1.99829102 C-5.10283532 0.29368268 -3.36032688 -0.49457356 0 0 Z " fill="#C14A40" transform="translate(251.83984375,200.41796875)"/>
<path d="M0 0 C2.66927083 1.49739583 5.33854167 2.99479167 8.0078125 4.4921875 C8.0078125 10.4321875 8.0078125 16.3721875 8.0078125 22.4921875 C5.8215625 23.6678125 3.6353125 24.8434375 1.3828125 26.0546875 C0.70653809 26.42924072 0.03026367 26.80379395 -0.66650391 27.18969727 C-3.54290889 28.6798174 -5.70316671 29.49561915 -8.953125 29.45703125 C-11.9921875 28.4921875 -11.9921875 28.4921875 -13.70361328 27.29541016 C-15.87140855 25.83503031 -17.4127132 24.99404951 -19.9921875 24.4921875 C-24.5641283 25.944405 -28.43714254 28.40308256 -32.4921875 30.9296875 C-33.58144531 31.57357422 -34.67070312 32.21746094 -35.79296875 32.88085938 C-40.46623319 35.65825898 -45.06741167 38.53865149 -49.6484375 41.46484375 C-52.9921875 43.4921875 -52.9921875 43.4921875 -54.9921875 43.4921875 C-54.87617188 44.57757813 -54.76015625 45.66296875 -54.640625 46.78125 C-53.9896958 55.49275107 -53.9896958 55.49275107 -54.9921875 59.4921875 C-57.86691922 62.68980575 -60.91729611 64.20959874 -64.9921875 65.4921875 C-65.6521875 65.4921875 -66.3121875 65.4921875 -66.9921875 65.4921875 C-66.9921875 80.3421875 -66.9921875 95.1921875 -66.9921875 110.4921875 C-65.3421875 111.1521875 -63.6921875 111.8121875 -61.9921875 112.4921875 C-59.6821875 113.8121875 -57.3721875 115.1321875 -54.9921875 116.4921875 C-54.9921875 122.4321875 -54.9921875 128.3721875 -54.9921875 134.4921875 C-67.09301757 141.5304254 -67.09301757 141.5304254 -71.0234375 141.36328125 C-76.82005378 139.662432 -81.79890802 138.01161094 -85.9921875 133.4921875 C-87.49364902 127.96383325 -86.67332776 122.09898092 -85.9921875 116.4921875 C-83.0221875 114.8421875 -80.0521875 113.1921875 -76.9921875 111.4921875 C-76.9921875 95.9821875 -76.9921875 80.4721875 -76.9921875 64.4921875 C-79.9621875 62.8421875 -82.9321875 61.1921875 -85.9921875 59.4921875 C-85.9921875 53.8821875 -85.9921875 48.2721875 -85.9921875 42.4921875 C-83.8059375 41.1515625 -81.6196875 39.8109375 -79.3671875 38.4296875 C-78.69091309 38.00292725 -78.01463867 37.57616699 -77.31787109 37.13647461 C-74.12883891 35.25044291 -72.4865459 34.46998228 -68.6875 34.640625 C-65.9921875 35.4921875 -65.9921875 35.4921875 -63.4921875 37.1796875 C-61.02017765 38.83415171 -61.02017765 38.83415171 -58.18530273 37.76904297 C-55.05827497 36.5186144 -52.29775653 35.09011233 -49.40234375 33.375 C-47.85450195 32.46427734 -47.85450195 32.46427734 -46.27539062 31.53515625 C-45.21255859 30.90222656 -44.14972656 30.26929688 -43.0546875 29.6171875 C-40.94151588 28.36960596 -38.82823736 27.12220546 -36.71484375 25.875 C-35.72750244 25.28138672 -34.74016113 24.68777344 -33.72290039 24.07617188 C-30.9921875 22.4921875 -30.9921875 22.4921875 -28.68139648 21.39257812 C-26.52332214 20.4349376 -26.52332214 20.4349376 -23.9921875 18.4921875 C-23.45364413 15.25664632 -23.45364413 15.25664632 -23.9296875 11.7421875 C-23.83751148 5.44788208 -23.83751148 5.44788208 -21.69824219 3.02929688 C-19.96647392 1.66313551 -18.23260392 0.5630068 -16.3046875 -0.5078125 C-15.69165771 -0.85166992 -15.07862793 -1.19552734 -14.44702148 -1.54980469 C-8.5756735 -4.40491597 -5.47448556 -2.75868332 0 0 Z " fill="#F18234" transform="translate(232.9921875,141.5078125)"/>
<path d="M0 0 C0.83144531 0.3815625 1.66289062 0.763125 2.51953125 1.15625 C3.27621094 1.5996875 4.03289062 2.043125 4.8125 2.5 C5.58207031 2.9228125 6.35164063 3.345625 7.14453125 3.78125 C9.42557527 6.50889842 9.04348388 7.26774172 8.9296875 10.70703125 C8.9811749 13.42117633 8.9811749 13.42117633 10 16 C13.99423159 19.5159857 18.60045953 21.79488544 23.3125 24.1875 C24.5571544 24.85011594 25.80001655 25.51610998 27.04101562 26.18554688 C28.88463511 27.17803128 30.73015445 28.16375438 32.58889771 29.12765503 C37.66941204 31.76264969 42.50139861 34.72768502 47.30541992 37.84106445 C50.66642749 39.28662964 52.51180263 38.93932979 56 38 C56.680625 37.649375 57.36125 37.29875 58.0625 36.9375 C61.74336246 35.15643752 64.54311737 35.84199252 68.33203125 37.15234375 C72.37158571 39.22425889 74.88576438 40.66651504 78 44 C79.60268069 49.52634879 78.74645566 55.38563266 78 61 C75.71125827 62.33858524 73.41930344 63.67101014 71.125 65 C70.47402344 65.3815625 69.82304687 65.763125 69.15234375 66.15625 C64.2265625 69 64.2265625 69 62 69 C62.495 89.295 62.495 89.295 63 110 C67.95 112.64 72.9 115.28 78 118 C79.27305861 130.53473097 79.27305861 130.53473097 78 135 C74.26512435 139.15353428 70.40623414 141.38351803 65 143 C57.85346042 142.74140811 53.06569963 139.51960349 47 136 C47 130.06 47 124.12 47 118 C54 114 54 114 56 114 C56 97.83 56 81.66 56 65 C54.02 64.34 52.04 63.68 50 63 C48.515 62.01 48.515 62.01 47 61 C47.17836747 59.27927856 47.36496524 57.55883315 47.60205078 55.84521484 C48.00426312 51.84082239 47.89379045 48.61859402 46 45 C40.01593748 39.51912172 32.37166056 36.06114452 25.12207031 32.55371094 C21.11519141 30.55967142 17.28436949 28.29791909 13.45068359 25.99072266 C10.46857146 24.78516268 9.02431591 25.0104365 6 26 C4.34053338 27.16837243 2.69542229 28.35730774 1.0625 29.5625 C-1.796875 31.23046875 -1.796875 31.23046875 -5 32 C-10.22710881 30.58966172 -14.6900363 27.15854274 -19 24 C-20.9116095 8.70712401 -20.9116095 8.70712401 -17.82080078 4.33007812 C-12.47124532 -0.56630176 -6.88463395 -3.18472863 0 0 Z " fill="#AA6687" transform="translate(275,140)"/>
<path d="M0 0 C0.78246094 0.45503906 1.56492188 0.91007812 2.37109375 1.37890625 C3.67820313 1.86423828 3.67820313 1.86423828 5.01171875 2.359375 C8.03403267 3.75742141 10.10330444 4.91561787 12.37109375 7.37890625 C12.53515625 10.6875 12.53515625 10.6875 12.24609375 14.50390625 C12.18579613 18.63204096 12.18579613 18.63204096 13.37109375 22.37890625 C18.20574109 27.19165258 24.73341868 29.97825357 30.77099609 32.98583984 C33.2116663 34.29348906 35.36008529 35.7162387 37.578125 37.3671875 C41.13316175 39.97831641 44.13346548 42.02819197 48.37109375 43.37890625 C52.59688366 42.12614791 55.03772633 40.65755758 58.56640625 38.03125 C61.37109375 36.37890625 61.37109375 36.37890625 64.0859375 37.0234375 C66.37109375 38.37890625 66.37109375 38.37890625 68.80859375 40.12890625 C71.29591877 41.67220465 71.29591877 41.67220465 73.90234375 40.8125 C79.65202796 38.43622286 84.88955019 35.19062218 90.24121094 32.03686523 C98.28601041 27.3277314 98.28601041 27.3277314 102.6015625 25.48828125 C107.30477426 23.42752716 107.30477426 23.42752716 111.37109375 20.37890625 C111.93708194 17.02618233 111.80918635 13.95906176 111.6953125 10.56640625 C112.37109375 7.37890625 112.37109375 7.37890625 115.328125 4.69140625 C116.57009327 3.90494121 117.83583611 3.15493638 119.12109375 2.44140625 C120.05393188 1.91945679 120.05393188 1.91945679 121.00561523 1.38696289 C123.95154628 -0.06286908 125.7689293 -0.77814111 128.9921875 0.0625 C129.77722656 0.49691406 130.56226563 0.93132812 131.37109375 1.37890625 C132.25410156 1.66765625 133.13710938 1.95640625 134.046875 2.25390625 C137.28019603 3.63345656 139.10111423 4.65493082 141.37109375 7.37890625 C142.67132847 13.25737285 141.93111506 19.44268033 141.37109375 25.37890625 C132.30487414 32.11151312 132.30487414 32.11151312 127.37109375 33.37890625 C123.64002439 32.41604964 121.21866471 31.00091595 118.08984375 28.77734375 C115.43247079 27.02886069 115.43247079 27.02886069 112.55053711 28.11035156 C109.49055265 29.33124377 106.66995049 30.69640807 103.78125 32.27734375 C102.74935547 32.839375 101.71746094 33.40140625 100.65429688 33.98046875 C99.59146484 34.56570313 98.52863281 35.1509375 97.43359375 35.75390625 C96.37462891 36.33140625 95.31566406 36.90890625 94.22460938 37.50390625 C89.86708273 39.88518719 85.52357367 42.27711408 81.2421875 44.79296875 C78.37109375 46.37890625 78.37109375 46.37890625 76.37109375 46.37890625 C76.52191406 47.44109375 76.67273438 48.50328125 76.828125 49.59765625 C77.25671207 53.92751086 77.64016019 58.16270376 76.37109375 62.37890625 C72.62694916 66.44460038 68.74210861 68.82510468 63.37109375 70.37890625 C60.2734375 69.70703125 60.2734375 69.70703125 57.37109375 68.37890625 C56.46746094 68.02054687 55.56382812 67.6621875 54.6328125 67.29296875 C51.79761829 65.87322051 49.66749036 64.57900817 47.37109375 62.37890625 C47.18896484 59.71411133 47.18896484 59.71411133 47.45703125 56.7109375 C47.25212944 52.37947719 46.92636877 50.89970324 43.71704102 47.88964844 C40.08321173 45.43320402 36.20678118 43.4393383 32.30859375 41.44140625 C30.98150896 40.72348045 29.65660828 40.00150183 28.33398438 39.27539062 C25.80817816 37.89312473 23.27164719 36.53514043 20.72387695 35.19384766 C17.92326982 33.67781231 15.25991445 32.08586729 12.59765625 30.34375 C9.61741271 28.03200711 9.61741271 28.03200711 6.80859375 28.87890625 C6.00421875 29.37390625 5.19984375 29.86890625 4.37109375 30.37890625 C1.18359375 32.2109375 1.18359375 32.2109375 -2.62890625 33.37890625 C-5.45116016 32.61609531 -7.64920269 31.17855639 -10.06640625 29.56640625 C-12.23203125 28.18453125 -14.39765625 26.80265625 -16.62890625 25.37890625 C-16.62890625 19.43890625 -16.62890625 13.49890625 -16.62890625 7.37890625 C-14.42203125 6.01765625 -12.21515625 4.65640625 -9.94140625 3.25390625 C-9.25602783 2.81804199 -8.57064941 2.38217773 -7.86450195 1.93310547 C-3.29412884 -0.77825629 -3.29412884 -0.77825629 0 0 Z " fill="#DB5141" transform="translate(187.62890625,291.62109375)"/>
<path d="M0 0 C4.40484342 2.20514411 8.59403686 4.68426564 12.78515625 7.26953125 C14.46433072 8.29511129 16.14402465 9.31984127 17.82421875 10.34375 C18.67435547 10.8895874 19.52449219 11.4354248 20.40039062 11.99780273 C23.16071482 13.68718509 23.16071482 13.68718509 26.40429688 14.76196289 C30.18285329 16.30837837 32.40024581 17.54580179 35.16015625 20.58203125 C37.75861764 27.57766201 37.48191327 35.28718992 37.41015625 42.64453125 C37.41420471 43.67225647 37.41825317 44.69998169 37.42242432 45.7588501 C37.31131603 63.34476539 37.31131603 63.34476539 32.97753906 68.94384766 C27.47746669 73.94652046 21.12276354 76.37417698 14.09960938 78.55761719 C10.71063371 79.7386921 8.25440571 81.39351896 5.38061523 83.48339844 C2.6279475 85.37888502 0.47411317 86.14728892 -2.83984375 86.58203125 C-8.41884887 85.10527548 -13.1840974 81.78740952 -17.81469727 78.44946289 C-20.41725703 76.84289525 -22.80392985 75.72090148 -25.61303711 74.55639648 C-38.49027326 68.86326844 -38.49027326 68.86326844 -40.83450317 63.16369629 C-42.2143416 56.26442572 -41.57388287 49.35625645 -41.02734375 42.39453125 C-40.93191311 40.27707271 -40.84524217 38.15920022 -40.76757812 36.04101562 C-40.55928163 30.87771306 -40.23251558 25.73445794 -39.83984375 20.58203125 C-38.92331276 20.05716629 -38.92331276 20.05716629 -37.98826599 19.521698 C-36.38675175 18.60453856 -34.78528219 17.68730109 -33.18383789 16.77001953 C-31.27837535 15.68095012 -29.37129164 14.59471253 -27.46264648 13.51123047 C-22.97387554 10.96140055 -18.50307088 8.39622809 -14.09375 5.7109375 C-13.38089844 5.28546631 -12.66804688 4.85999512 -11.93359375 4.42163086 C-10.60991986 3.63013115 -9.29543936 2.82298426 -7.9921875 1.99829102 C-5.10283532 0.29368268 -3.36032688 -0.49457356 0 0 Z M-9.86328125 7.7578125 C-10.44647125 8.08363815 -11.02966125 8.40946381 -11.63052368 8.74516296 C-13.49535762 9.78903189 -15.35504632 10.84172042 -17.21484375 11.89453125 C-18.45931821 12.59236286 -19.70410664 13.28963488 -20.94921875 13.98632812 C-24.25323025 15.83922033 -27.55274948 17.69921834 -30.83984375 19.58203125 C-31.78448486 19.95972656 -32.72912598 20.33742187 -33.70239258 20.7265625 C-35.97292603 22.32904745 -35.97292603 22.32904745 -36.26220703 24.42778015 C-36.42224888 26.91604417 -36.40110411 29.35136748 -36.328125 31.84375 C-36.32105026 32.749543 -36.31397552 33.655336 -36.3066864 34.58857727 C-36.27868603 37.48306708 -36.21593816 40.37562575 -36.15234375 43.26953125 C-36.12726813 45.23109186 -36.10445368 47.19268279 -36.08398438 49.15429688 C-36.02884091 53.9642863 -35.94253017 58.77283134 -35.83984375 63.58203125 C-34.75884399 64.1867627 -34.75884399 64.1867627 -33.65600586 64.80371094 C-30.95160022 66.31680492 -28.24735461 67.83018441 -25.54321289 69.34375 C-23.80952876 70.31401868 -22.07566451 71.28396552 -20.34179688 72.25390625 C-19.23642578 72.87265625 -18.13105469 73.49140625 -16.9921875 74.12890625 C-15.91952637 74.72509766 -14.84686523 75.32128906 -13.74169922 75.93554688 C-11.39632771 77.2662877 -9.12390531 78.66120167 -6.84375 80.09765625 C-3.29504369 81.85124324 -2.53962084 81.69070301 1.16015625 80.58203125 C3.37749178 79.46386535 5.55572802 78.26675137 7.703125 77.01953125 C8.31279617 76.66818115 8.92246735 76.31683105 9.5506134 75.95483398 C11.48684831 74.8371292 13.41730243 73.70985678 15.34765625 72.58203125 C16.65651993 71.8235607 17.96576112 71.0657412 19.27539062 70.30859375 C21.66675583 68.9259685 24.05528759 67.53888242 26.44213867 66.1484375 C27.99327404 65.25451093 29.55887535 64.3826717 31.16015625 63.58203125 C31.38323434 57.99554578 31.54620981 52.41166774 31.65454102 46.82177734 C31.69970668 44.92222938 31.76105794 43.02299271 31.83911133 41.12451172 C32.71770439 30.71428068 32.71770439 30.71428068 29.53417969 21.21142578 C27.14912147 19.59003762 24.8492416 18.61879285 22.16015625 17.58203125 C20.21082547 16.4635929 18.27636764 15.31893805 16.35546875 14.15234375 C14.33410027 13.00026845 12.31063403 11.85186652 10.28515625 10.70703125 C9.25390625 10.1140625 8.22265625 9.52109375 7.16015625 8.91015625 C6.17273438 8.35070312 5.1853125 7.79125 4.16796875 7.21484375 C3.2773877 6.70840332 2.38680664 6.20196289 1.46923828 5.68017578 C-3.16840083 3.47462485 -5.67763717 5.40420461 -9.86328125 7.7578125 Z " fill="#FBF4F3" transform="translate(251.83984375,200.41796875)"/>
<path d="M0 0 C0.99 0 1.98 0 3 0 C3.66 2.97 4.32 5.94 5 9 C5.66 6.03 6.32 3.06 7 0 C8.32 0.33 9.64 0.66 11 1 C12.25 4.0625 12.25 4.0625 13 7 C13.66 4.69 14.32 2.38 15 0 C15.99 0 16.98 0 18 0 C17.69052329 1.93798521 17.37731166 3.87537426 17.0625 5.8125 C16.80146484 7.43091797 16.80146484 7.43091797 16.53515625 9.08203125 C16 12 16 12 15 15 C13.68 15 12.36 15 11 15 C10.34 13.02 9.68 11.04 9 9 C8.34 10.98 7.68 12.96 7 15 C5.35 14.67 3.7 14.34 2 14 C-0.29612756 4.58997722 -0.29612756 4.58997722 0 0 Z " fill="#F8ECEB" transform="translate(242,236)"/>
<path d="M0 0 C1.65 0.33 3.3 0.66 5 1 C5.67031719 2.9570868 6.33614683 4.91571113 7 6.875 C7.556875 8.51082031 7.556875 8.51082031 8.125 10.1796875 C9 13 9 13 9 15 C8.01 15 7.02 15 6 15 C5.67 14.34 5.34 13.68 5 13 C1.97065509 12.34227572 1.97065509 12.34227572 -1 12 C-1.33 12.99 -1.66 13.98 -2 15 C-2.99 14.67 -3.98 14.34 -5 14 C-3.35 9.38 -1.7 4.76 0 0 Z " fill="#F2D0C9" transform="translate(232,236)"/>
<path d="M0 0 C0.94875 0.04125 1.8975 0.0825 2.875 0.125 C3.205 1.445 3.535 2.765 3.875 4.125 C0.905 3.63 0.905 3.63 -2.125 3.125 C-2.125 4.115 -2.125 5.105 -2.125 6.125 C-1.155625 6.269375 -0.18625 6.41375 0.8125 6.5625 C3.875 7.125 3.875 7.125 4.875 8.125 C5.0625 10.5625 5.0625 10.5625 4.875 13.125 C2.875 15.125 2.875 15.125 -0.625 15.4375 C-2.3575 15.2828125 -2.3575 15.2828125 -4.125 15.125 C-4.785 14.135 -5.445 13.145 -6.125 12.125 C-3.79166667 12.125 -1.45833333 12.125 0.875 12.125 C0.875 11.465 0.875 10.805 0.875 10.125 C0.070625 9.815625 -0.73375 9.50625 -1.5625 9.1875 C-4.125 8.125 -4.125 8.125 -5.125 7.125 C-5.3125 4.6875 -5.3125 4.6875 -5.125 2.125 C-3.125 0.125 -3.125 0.125 0 0 Z " fill="#F9F0F1" transform="translate(267.125,235.875)"/>
<path d="M0 0 C0.93423645 3.01031744 1.04449911 3.86650268 0 7 C0.99 7.33 1.98 7.66 3 8 C1.68 8 0.36 8 -1 8 C-1.33 9.32 -1.66 10.64 -2 12 C-2.99 11.67 -3.98 11.34 -5 11 C-4.35731563 9.35293447 -3.71076198 7.70737825 -3.0625 6.0625 C-2.70285156 5.14597656 -2.34320313 4.22945312 -1.97265625 3.28515625 C-1 1 -1 1 0 0 Z " fill="#FBF3F0" transform="translate(232,239)"/>
<path d="M0 0 C1.98 0.495 1.98 0.495 4 1 C4.33 2.98 4.66 4.96 5 7 C4.34 7 3.68 7 3 7 C2.67 7.66 2.34 8.32 2 9 C0.4375 7.875 0.4375 7.875 -1 6 C-0.6875 2.8125 -0.6875 2.8125 0 0 Z " fill="#F1D7D5" transform="translate(249,236)"/>
<path d="M0 0 C1.98 0 3.96 0 6 0 C6.33 1.32 6.66 2.64 7 4 C4.03 3.505 4.03 3.505 1 3 C0.67 3.66 0.34 4.32 0 5 C-0.66 4.67 -1.32 4.34 -2 4 C-1.34 2.68 -0.68 1.36 0 0 Z " fill="#F2E1E3" transform="translate(264,236)"/>
<path d="M0 0 C0.99 0 1.98 0 3 0 C3.33 2.31 3.66 4.62 4 7 C3.34 7 2.68 7 2 7 C1.67 7.66 1.34 8.32 1 9 C0.67 6.03 0.34 3.06 0 0 Z " fill="#F4DDDA" transform="translate(242,236)"/>
<path d="M0 0 C0.99 0 1.98 0 3 0 C2.67 2.64 2.34 5.28 2 8 C1.01 7.34 0.02 6.68 -1 6 C-0.67 4.02 -0.34 2.04 0 0 Z " fill="#EFD4D4" transform="translate(257,236)"/>
</svg>
