<?xml version="1.0" encoding="UTF-8"?>
<svg version="1.1" xmlns="http://www.w3.org/2000/svg" width="500" height="500">
<path d="M0 0 C165 0 330 0 500 0 C500 165 500 330 500 500 C335 500 170 500 0 500 C0 335 0 170 0 0 Z " fill="#000000" transform="translate(0,0)"/>
<path d="M0 0 C11.13281947 4.57031536 19.80487475 15.6424434 28.203125 23.95703125 C28.86128582 24.60862024 29.51944664 25.26020924 30.19755173 25.93154335 C33.67681326 29.37839606 37.15211405 32.82919527 40.625 36.2824707 C43.47989238 39.11953882 46.34305944 41.947838 49.21386719 44.76879883 C52.7054999 48.19991552 56.18187584 51.64583054 59.6482048 55.10250282 C60.96103815 56.4068416 62.27895252 57.70608907 63.60225296 58.99980736 C72.51856571 67.72731355 81.16877137 76.29866157 81.9140625 89.4765625 C80.85326695 106.81041323 66.03682638 117.78008331 54.56640625 129.3125 C53.92269136 129.96029041 53.27897648 130.60808083 52.61575508 131.27550125 C49.21835622 134.69358566 45.81781678 138.1085103 42.41479492 141.52099609 C38.91745738 145.02946028 35.43197354 148.54946607 31.94888973 152.07207298 C29.24884731 154.7982967 26.53992149 157.51556193 23.82855415 160.23051834 C22.539467 161.5244545 21.25373951 162.82174735 19.97157097 164.12253952 C18.1778215 165.94074926 16.37172958 167.74579616 14.56225586 169.54833984 C13.78504181 170.34476898 13.78504181 170.34476898 12.99212646 171.1572876 C6.60688426 177.45435475 -0.49762236 180.48615501 -9.4609375 180.6015625 C-25.8183846 180.41701694 -36.10958508 167.28673663 -46.9765625 156.45703125 C-48.34170941 155.10086932 -49.70692467 153.74477619 -51.07220459 152.38874817 C-53.91999601 149.55736383 -56.763439 146.72168947 -59.60449219 143.88354492 C-63.22942033 140.26401102 -66.87025418 136.66093754 -70.51520157 133.0615797 C-73.33598073 130.27065812 -76.14532655 127.46843593 -78.95171356 124.6630497 C-80.28873494 123.33020838 -81.62983896 122.00144848 -82.97522736 120.67705345 C-100.66945756 103.23727621 -100.66945756 103.23727621 -101.0234375 90.2890625 C-100.85652602 81.20430886 -98.0471097 75.50208555 -91.86962891 68.87670898 C-91.38801615 68.35940185 -90.90640339 67.84209471 -90.4101963 67.3091116 C-84.55259708 61.05394341 -78.52606997 54.9632926 -72.484375 48.88671875 C-71.8768401 48.27510832 -71.26930519 47.66349789 -70.64336014 47.03335381 C-67.43928604 43.80865209 -64.23211379 40.5870685 -61.02246094 37.36791992 C-57.7315467 34.06586529 -54.45250451 30.75226898 -51.17581749 27.43610477 C-48.62759218 24.86166466 -46.07045347 22.29621729 -43.51088333 19.73306084 C-42.29797531 18.51531588 -41.08841529 17.29422576 -39.88245773 16.06959724 C-33.70506287 9.80238021 -27.89726605 3.9488471 -19.7109375 0.3515625 C-14.48686863 -2.26047193 -5.58695895 -1.33636194 0 0 Z " fill="#E2E2E2" transform="translate(259.7109375,161.6484375)"/>
<path d="M0 0 C2.84206258 1.6079514 4.91703278 3.76309881 7.15625 6.11865234 C7.80944717 6.76892899 8.46264435 7.41920563 9.13563538 8.08918762 C11.27925324 10.23397277 13.38916968 12.40891655 15.5 14.5859375 C16.98499514 16.08518976 18.47192299 17.58252995 19.96069336 19.07803345 C23.86699777 23.01297551 27.74510421 26.97462579 31.61834717 30.94207764 C35.57278471 34.98164184 39.55578426 38.99283868 43.53515625 43.0078125 C49.32998975 48.86606509 55.11844098 54.73048986 60.87890625 60.62255859 C61.79205345 61.55152199 61.79205345 61.55152199 62.72364807 62.49925232 C67.86017905 67.76957568 67.86017905 67.76957568 68.3125 71.75 C67.67120911 78.41942522 62.34802063 82.93966855 57.79443359 87.44848633 C57.18258713 88.06223114 56.57074066 88.67597595 55.94035339 89.30831909 C53.9312238 91.32113207 51.91502327 93.3266907 49.8984375 95.33203125 C48.49610523 96.73317064 47.09414326 98.13468075 45.6925354 99.5365448 C42.76197602 102.46554374 39.8280981 105.39116266 36.89160156 108.31420898 C33.12239779 112.06636862 29.35986544 115.82513258 25.59955406 119.58620167 C22.70888625 122.47659808 19.81562383 125.36438513 16.92146683 128.25128746 C15.53254794 129.63701928 14.1442382 131.02336193 12.75654221 132.41031837 C10.82245876 134.34224179 8.88512378 136.27084136 6.94677734 138.19848633 C6.37115555 138.77456131 5.79553375 139.35063629 5.20246887 139.94416809 C1.86483789 143.25479089 0.16846232 144.79134601 -4.5 145.625 C-8.65978276 145.54600083 -10.45285924 144.09621206 -13.44311523 141.29077148 C-14.32063446 140.4696286 -15.19815369 139.64848572 -16.1022644 138.80245972 C-17.07037637 137.87058675 -18.03620499 136.93633711 -19 136 C-19.5008675 135.51348591 -20.001735 135.02697182 -20.5177803 134.52571487 C-24.51512257 130.6245076 -28.46440855 126.67592471 -32.41015625 122.72265625 C-33.67127674 121.46221089 -34.93254552 120.20191388 -36.19395447 118.9417572 C-38.81509108 116.32208337 -41.43443912 113.70063817 -44.05249023 111.07788086 C-47.41165258 107.7129746 -50.775349 104.35264193 -54.14035892 100.99358463 C-56.73544196 98.40210556 -59.3281506 95.80826156 -61.92013359 93.21368217 C-63.16059383 91.97255464 -64.40179792 90.7321701 -65.64375496 89.49254036 C-67.36917767 87.76964652 -69.09138108 86.04359896 -70.81274414 84.31665039 C-71.5832737 83.54915718 -71.5832737 83.54915718 -72.36936951 82.76615906 C-75.64633252 79.46938925 -77.17632378 77.5197538 -77.5 72.875 C-77.40825319 68.94128183 -76.70620362 67.13461815 -74.03100586 64.26367188 C-73.39299042 63.57378174 -72.75497498 62.8838916 -72.09762573 62.1730957 C-68.43589799 58.37962354 -64.74427689 54.62233975 -61.00390625 50.90625 C-60.17036118 50.07411987 -59.3368161 49.24198975 -58.47801208 48.38464355 C-55.84186738 45.75405065 -53.20224895 43.12697559 -50.5625 40.5 C-48.76344021 38.70596145 -46.9646098 36.91169285 -45.16601562 35.1171875 C-40.77999188 30.74212875 -36.39111858 26.36994488 -32 22 C-30.87411986 22.95729916 -29.7493285 23.91587895 -28.625 24.875 C-27.99851563 25.40867188 -27.37203125 25.94234375 -26.7265625 26.4921875 C-23.03273404 29.71801959 -23.03273404 29.71801959 -22.7265625 32.35546875 C-22.67628906 33.75732422 -22.67628906 33.75732422 -22.625 35.1875 C-22.2208131 40.6050227 -21.14894597 43.59147564 -18 48 C-16.96202271 48.8038916 -16.96202271 48.8038916 -15.90307617 49.62402344 C-13.0236759 53.21893344 -13.37020784 56.5925612 -13.36328125 61.078125 C-13.35233932 61.96352966 -13.3413974 62.84893433 -13.3301239 63.76116943 C-13.31427065 65.63385201 -13.30905894 67.50665065 -13.3137207 69.37939453 C-13.31250953 72.22757916 -13.25283265 75.07057579 -13.18945312 77.91796875 C-13.04547494 93.14908005 -13.04547494 93.14908005 -17.48046875 98.109375 C-18.6522913 99.07456354 -19.82520561 100.03843088 -21 101 C-22.82526221 106.47578663 -22.80127023 111.90740347 -20.5 117.25 C-17.9794986 121.65647097 -14.74189747 124.22382535 -10 126 C-4.70388599 127.02559668 -0.35460714 126.5836185 4.375 123.9375 C8.12288931 121.21383145 10.65821232 118.48660254 12 114 C12.75084298 108.6267799 12.73405469 104.44189315 10.25 99.5625 C8.15189315 97.0137885 8.15189315 97.0137885 5.88378906 95.34277344 C3.22617076 92.03762761 3.49706358 89.0056496 3.609375 84.953125 C3.61503479 84.18192322 3.62069458 83.41072144 3.62652588 82.6161499 C3.64886411 80.16012721 3.69905237 77.70557945 3.75 75.25 C3.77006846 73.58205237 3.78831863 71.91408179 3.8046875 70.24609375 C3.84872008 66.16349677 3.91772717 62.08199819 4 58 C5.1055189 58.93590504 6.20935453 59.87379858 7.3125 60.8125 C7.92738281 61.33457031 8.54226563 61.85664063 9.17578125 62.39453125 C13.93141107 66.57989283 13.93141107 66.57989283 14.40625 69.48828125 C14.4371875 70.42027344 14.468125 71.35226563 14.5 72.3125 C14.90724521 78.24888216 15.94924857 82.05718285 20.375 86.25 C25.29718522 89.53145681 29.03925381 90.60617758 35 90 C41.14128401 87.87240161 44.84067955 84.80040399 48.07421875 79.109375 C49.69012235 75.42756933 49.63838878 71.93350662 49 68 C47.03509345 63.47523512 44.36371918 59.4727742 40 57 C37.17079521 55.8486038 37.17079521 55.8486038 34.7578125 56.140625 C28.6998849 56.39228965 25.08415232 54.80754611 20.63208008 50.88989258 C15.79045543 46.19895904 12.29879608 42.5945555 11.9375 35.5625 C11.958125 34.5828125 11.97875 33.603125 12 32.59375 C12 28.65535426 10.67142536 26.80842153 8 24 C3.67414435 20.26588876 0.22407447 18.81452523 -5.5 18.6875 C-10.29920627 18.5000833 -12.31504868 17.35173391 -15.6875 13.9375 C-16.81839684 12.64796031 -17.9326436 11.3426059 -19 10 C-9.43685406 -1.6351609 -9.43685406 -1.6351609 0 0 Z " fill="#020202" transform="translate(255,179)"/>
</svg>
